<?xml version="1.0" encoding="utf-8"?>
<!-- Generator: Adobe Illustrator 23.0.4, SVG Export Plug-In . SVG Version: 6.00 Build 0)  -->
<svg version="1.1" id="Vrstva_1" xmlns="http://www.w3.org/2000/svg" xmlns:xlink="http://www.w3.org/1999/xlink" x="0px" y="0px"
	 viewBox="0 0 196.143 196.143" style="enable-background:new 0 0 196.143 196.143;" xml:space="preserve">
<style type="text/css">
	.st0{fill:#FFFFFF;}
</style>
<path class="st0" d="M167.225,96.228c0-0.187-0.023-0.368-0.061-0.543c-0.458-13.3-4.703-25.654-11.713-35.997
	c-0.017-0.077-0.025-0.154-0.05-0.231c-0.195-0.597-0.594-1.064-1.089-1.371c-12.463-17.304-32.768-28.602-55.674-28.602
	c-22.907,0-43.213,11.3-55.676,28.606c-0.493,0.307-0.892,0.773-1.086,1.368c-0.025,0.075-0.032,0.151-0.049,0.227
	c-7.012,10.344-11.257,22.699-11.715,36c-0.038,0.175-0.061,0.356-0.061,0.543c0,0.127,0.019,0.249,0.037,0.371
	c-0.01,0.491-0.037,0.979-0.037,1.473c0,37.82,30.768,68.587,68.586,68.587c37.82,0,68.587-30.768,68.587-68.587
	c0-0.494-0.027-0.981-0.037-1.473C167.206,96.477,167.225,96.355,167.225,96.228z M152.041,132.319
	c-2.246-0.762-6.479-1.93-13.538-2.986c3.086-9.183,4.86-19.557,4.934-30.55h18.66C161.96,111.121,158.284,122.618,152.041,132.319z
	 M35.18,98.783h18.66c0.074,10.992,1.847,21.366,4.934,30.55c-7.059,1.056-11.292,2.225-13.538,2.987
	C38.993,122.618,35.317,111.121,35.18,98.783z M45.568,63.306c2.491,0.728,7.115,1.983,13.288,3.258
	c-2.788,8.212-4.522,17.386-4.926,27.109H35.332C36.1,82.517,39.757,72.147,45.568,63.306z M101.193,70.726
	c12.244-0.177,23.387-1.595,32.235-3.195c2.708,7.854,4.398,16.719,4.804,26.141h-37.039V70.726z M101.193,65.615V34.74
	c12.632,1.291,23.679,12.056,30.37,27.903C123.086,64.137,112.588,65.442,101.193,65.615z M96.083,34.74v30.875
	c-11.386-0.174-21.886-1.48-30.368-2.975C72.406,46.795,83.452,36.031,96.083,34.74z M96.083,70.726v22.947H59.045
	c0.406-9.423,2.096-18.287,4.804-26.142C72.696,69.131,83.839,70.549,96.083,70.726z M58.95,98.783h37.133v28.159
	c-13.863,0.08-24.373,0.795-32.218,1.716C60.797,119.776,59.025,109.601,58.95,98.783z M96.083,132.052v29.351
	c-12.607-1.288-23.634-12.013-30.329-27.809C73.229,132.767,83.154,132.128,96.083,132.052z M101.193,161.403v-29.351
	c12.93,0.076,22.855,0.715,30.33,1.542C124.828,149.39,113.8,160.115,101.193,161.403z M101.193,126.942V98.783h37.134
	c-0.075,10.817-1.847,20.993-4.915,29.875C125.567,127.737,115.057,127.022,101.193,126.942z M143.347,93.673
	c-0.404-9.723-2.138-18.896-4.926-27.108c6.172-1.275,10.796-2.53,13.288-3.258c5.811,8.841,9.469,19.21,10.237,30.366H143.347z
	 M148.52,58.885c-2.7,0.738-6.788,1.77-11.92,2.807c-3.892-9.481-9.256-17.402-15.599-23.019
	C131.926,42.801,141.414,49.86,148.52,58.885z M76.276,38.674c-6.343,5.616-11.705,13.536-15.598,23.016
	c-5.131-1.037-9.22-2.068-11.921-2.805C55.864,49.859,65.352,42.8,76.276,38.674z M48.328,136.712
	c2.344-0.683,6.265-1.614,12.263-2.467c3.899,9.573,9.296,17.567,15.685,23.225C65.132,153.26,55.478,146,48.328,136.712z
	 M121.001,157.469c6.389-5.658,11.786-13.652,15.685-23.225c6.003,0.854,9.923,1.785,12.264,2.466
	C141.8,145.999,132.146,153.259,121.001,157.469z"/>
</svg>
