<?xml version="1.0" encoding="utf-8"?>
<!-- Generator: Adobe Illustrator 23.0.4, SVG Export Plug-In . SVG Version: 6.00 Build 0)  -->
<svg version="1.1" id="Layer_1" xmlns="http://www.w3.org/2000/svg" xmlns:xlink="http://www.w3.org/1999/xlink" x="0px" y="0px"
	 viewBox="0 0 141.732 141.732" style="enable-background:new 0 0 141.732 141.732;" xml:space="preserve">
<style type="text/css">
	.st0{fill:#7EBA02;}
	.st1{fill-rule:evenodd;clip-rule:evenodd;fill:#7EBA02;}
</style>
<g>
	<path class="st1" d="M79.506,73.026c1.578,0,2.858-1.282,2.858-2.861c0-1.578-1.28-2.86-2.858-2.86c-1.58,0-2.861,1.282-2.861,2.86
		C76.645,71.744,77.925,73.026,79.506,73.026z"/>
</g>
<g>
	<path class="st1" d="M99.968,67.522l-2.939-2.335l-1.725-1.375l1.257-2.303l2.16-3.962c1.055-1.864,0.006-2.921-1.038-3.096
		l-3.531-0.807l-2.074-0.475l0.305-2.682l0.521-4.607c0.279-2.186-1.061-2.68-2.077-2.367l-3.514,0.86l-2.062,0.504l-0.702-2.591
		l-1.206-4.46c-0.542-2.127-1.947-1.974-2.756-1.225l-2.886,2.379l-1.696,1.4l-1.587-2.06l-2.726-3.537
		c-1.271-1.707-2.493-0.927-2.957,0.124l-1.761,3.489l-1.034,2.049l-2.196-1.166l-3.777-2.007c-1.78-0.986-2.611,0.282-2.648,1.456
		l-0.332,3.993l-0.181,2.205h-4.422v0.006l-2.19-0.067c-1.98-0.097-2.274,1.44-1.879,2.534l1.154,3.806l0.681,2.236l-2.238,1.032
		l-3.846,1.776c-1.844,0.809-1.549,2.35-0.792,3.173l2.444,2.964l1.438,1.74l-1.662,1.959l-2.856,3.369
		c-1.383,1.574-0.553,2.854,0.439,3.266l3.308,1.606l1.635,0.797h0.309c0.191,0.668,0.481,1.29,0.728,1.933c1.199,0,1.917,0,2.639,0
		c-1.135-2.606-1.774-5.478-1.774-8.501c0-3.611,0.9-7.009,2.485-9.989h37.571v-0.204c1.652,3.031,2.591,6.503,2.591,10.194
		c0,3.023-0.638,5.895-1.773,8.501c0.879,0,1.759,0,2.638,0c0.247-0.643,0.537-1.264,0.728-1.933h0.292l-0.082-0.151l1.994-1.53
		l3.426-2.629C101.437,69.594,100.863,68.154,99.968,67.522z"/>
</g>
<g>
	<path class="st1" d="M62.288,73.026c1.578,0,2.86-1.282,2.86-2.861c0-1.578-1.282-2.86-2.86-2.86c-1.58,0-2.861,1.282-2.861,2.86
		C59.428,71.744,60.708,73.026,62.288,73.026z"/>
</g>
<g>
	<path class="st0" d="M115.753,86.264c-6.209,0-9.457-1.951-12.322-3.671c-2.642-1.588-4.927-2.959-9.754-2.959
		c-4.824,0-7.106,1.371-9.748,2.959c-2.865,1.721-6.109,3.671-12.315,3.671c-6.2,0-9.444-1.951-12.302-3.671
		c-2.639-1.588-4.918-2.959-9.738-2.959c-4.824,0-7.103,1.371-9.745,2.959c-2.862,1.721-6.106,3.671-12.312,3.671
		c-6.203,0-9.444-1.951-12.305-3.671c-2.639-1.588-4.921-2.959-9.741-2.959c-1.373,0-2.486-1.114-2.486-2.486
		c0-1.373,1.114-2.486,2.486-2.486c6.203,0,9.444,1.951,12.305,3.671c2.639,1.588,4.921,2.959,9.741,2.959
		c4.827,0,7.106-1.371,9.748-2.961c2.862-1.719,6.106-3.67,12.309-3.67c6.2,0,9.444,1.951,12.302,3.671
		c2.639,1.588,4.918,2.959,9.738,2.959c4.827,0,7.109-1.371,9.751-2.961c2.865-1.719,6.109-3.67,12.312-3.67
		c6.206,0,9.453,1.949,12.315,3.67c2.645,1.588,4.931,2.961,9.761,2.961s7.116-1.373,9.761-2.961
		c2.862-1.721,6.109-3.67,12.315-3.67c1.373,0,2.486,1.114,2.486,2.486c0,1.373-1.114,2.486-2.486,2.486
		c-4.827,0-7.113,1.371-9.754,2.959C125.209,84.314,121.962,86.264,115.753,86.264z"/>
</g>
<g>
	<path class="st0" d="M115.753,99.05c-6.209,0-9.457-1.951-12.322-3.671c-2.642-1.588-4.927-2.959-9.754-2.959
		c-4.824,0-7.106,1.371-9.748,2.959C81.063,97.1,77.82,99.05,71.613,99.05c-6.2,0-9.444-1.951-12.302-3.671
		c-2.639-1.588-4.918-2.959-9.738-2.959c-4.824,0-7.103,1.371-9.745,2.959c-2.862,1.721-6.106,3.671-12.312,3.671
		c-1.373,0-2.486-1.114-2.486-2.486s1.114-2.486,2.486-2.486c4.827,0,7.106-1.371,9.748-2.961c2.862-1.719,6.106-3.67,12.309-3.67
		c6.2,0,9.444,1.951,12.302,3.671c2.639,1.588,4.918,2.959,9.738,2.959c4.827,0,7.109-1.371,9.751-2.961
		c2.865-1.719,6.109-3.67,12.312-3.67c6.206,0,9.453,1.949,12.315,3.67c2.645,1.588,4.931,2.961,9.761,2.961
		c1.373,0,2.486,1.114,2.486,2.486S117.125,99.05,115.753,99.05z"/>
</g>
<g>
	<path class="st0" d="M71.613,111.699c-6.2,0-9.444-1.951-12.302-3.671c-2.639-1.588-4.918-2.959-9.738-2.959
		c-1.373,0-2.486-1.114-2.486-2.486c0-1.373,1.114-2.486,2.486-2.486c6.2,0,9.444,1.951,12.302,3.671
		c2.639,1.588,4.918,2.959,9.738,2.959c4.827,0,7.109-1.371,9.751-2.961c2.865-1.719,6.109-3.67,12.312-3.67
		c1.373,0,2.486,1.114,2.486,2.486c0,1.373-1.114,2.486-2.486,2.486c-4.824,0-7.106,1.371-9.748,2.959
		C81.063,109.748,77.82,111.699,71.613,111.699z"/>
</g>
</svg>
