 <svg class="svg svg--mail" viewBox="0 0 141.732 141.732">
    <path class="svg__path" d="M71.225,73.454c2.211,0,8.061-2.975,12.22-5.732l38.547-22.667c-1.759-3.456-5.311-5.847-9.454-5.847H29.914
                              c-4.143,0-7.693,2.39-9.453,5.845L58.36,67.335C62.904,70.328,69.01,73.454,71.225,73.454z"/>
    <path class="svg__path" d="M71.225,80.552c-5.452,0-14.802-5.996-16.622-7.197L19.267,52.582v41.921c0,5.88,4.767,10.647,10.647,10.647
                              h82.624c5.88,0,10.647-4.767,10.647-10.647V52.583L87.206,73.737C85.632,74.788,76.68,80.552,71.225,80.552z"/>
</svg>