<svg class="svg svg--heart" viewBox="0 0 141.732 141.732">
    <path class="svg__path" d="M70.866,23.132c-24.68,0-44.686,20.007-44.686,44.686c0,24.68,20.007,44.686,44.686,44.686
		c24.679,0,44.686-20.007,44.686-44.686C115.552,43.138,95.546,23.132,70.866,23.132z M97.158,78.951L71.836,95.594
		c-0.279,0.183-0.612,0.29-0.97,0.29c-0.358,0-0.692-0.107-0.97-0.29L44.575,78.951c-4.617-3.035-7.665-8.261-7.665-14.198
		c0-9.377,7.601-16.978,16.978-16.978c5.997,0,11.268,3.109,14.289,7.804c0.956,1.485,2.935,1.915,4.42,0.959
		c0.385-0.248,0.712-0.575,0.959-0.959l-0.004,0.006c3.02-4.698,8.293-7.81,14.293-7.81c9.377,0,16.978,7.601,16.978,16.978
		C104.823,70.691,101.775,75.917,97.158,78.951z"/>
</svg>
