<?xml version="1.0" encoding="utf-8"?>
<!-- Generator: Adobe Illustrator 23.0.4, SVG Export Plug-In . SVG Version: 6.00 Build 0)  -->
<svg version="1.1" id="Layer_1" xmlns="http://www.w3.org/2000/svg" xmlns:xlink="http://www.w3.org/1999/xlink" x="0px" y="0px"
	 viewBox="0 0 141.732 141.732" style="enable-background:new 0 0 141.732 141.732;" xml:space="preserve">
<style type="text/css">
	.st0{fill:#7EBA02;}
	.st1{fill-rule:evenodd;clip-rule:evenodd;fill:#7EBA02;}
</style>
<path class="st1" d="M48.356,40.189C34.955,50.306,37.072,64.556,47.064,78.91c6.343,9.112,8.131,15.547,3.401,25.713l0.018,0.069
	c-1.604,2.835-1.98,5.294-0.871,7.131c1.952,3.225,7.737,3.282,15.501,0.761l0.22-0.071c0.509-2.706,1.861-4.941,4.125-6.499
	l-0.027-0.554c-2.099,0.882-4.088,1.627-5.922,2.218c-5.354,1.735-8.929,2.363-9.474,1.469c-0.545-0.894,1.673-3.777,5.693-7.713
	c2.553-2.505,5.807-5.239,9.597-8.033l0.811-0.673c1.311-1.082,2.695-2.042,4.171-2.832c1.929-1.295,3.96-2.59,6.068-3.866
	c8.594-5.206,16.839-9.089,23.219-11.156c5.348-1.735,8.928-2.363,9.469-1.467c0.541,0.894-1.673,3.777-5.693,7.713
	c-4.785,4.691-12.045,10.198-20.644,15.405c-1.576,0.953-3.139,1.865-4.684,2.724l0.284,5.736c2.319-1.242,4.684-2.594,7.077-4.04
	c8.924-5.402,16.514-11.172,21.574-16.131c5.835-5.713,8.461-10.86,6.508-14.085c-1.251-2.067-4.074-2.832-7.979-2.455
	c-10.565-0.717-15.309-5.305-20.304-14.88c-7.682-14.726-18.572-23.114-32.652-17.767c-0.751-7.349-5.674-16.812-12.925-18.134
	L36.1,22.35C28.52,27.241,44.611,33.54,48.356,40.189L48.356,40.189z M79.248,108.037c2.594,1.265,4.712,3.323,4.712,7.022
	c0,3.701-3.492,7.808-7.81,7.808c-4.308,0-7.805-4.036-7.805-7.808c0-3.77,1.637-5.999,4.437-7.189
	c-0.197-4.217-0.39-8.433-0.582-12.652c1.879-1.554,3.919-2.826,6.229-3.596C78.698,97.095,78.973,102.565,79.248,108.037
	L79.248,108.037z M37.737,24.17c0,0,4.45,1.604,6.999,4.746c2.544,3.139,4.001,8.138,4.194,8.415
	c0.192,0.279-0.458,0.451-0.458,0.451c-3.185-5.159-10.368-9.149-11.101-11.026C36.742,25.157,37.737,24.17,37.737,24.17
	L37.737,24.17z M63.375,38.534c7.123,0.738,12.535,5.046,17.128,10.567c4.867,5.844,6.105,12.7,12.934,18.835
	c0,0-12.952-3.161-14.575-5.975C73.491,51.452,71.401,47.075,63.375,38.534z"/>
</svg>
