<svg class="svg svg--schoolclub" viewBox="0 0 141.732 141.732">
    <path class="svg__path" d="M64.877,76.308l-2.958,3.111c0.213,0.204,0.452,0.411,0.718,0.629c3.088,2.541,7.298,3.711,11.286,3.643
	c4.065-0.071,7.986-1.436,10.376-3.956c0.139-0.148,0.29-0.319,0.447-0.508l-3.309-2.724c-0.065,0.077-0.148,0.169-0.248,0.272
	c-1.581,1.672-4.361,2.579-7.333,2.632c-3.055,0.05-6.234-0.807-8.5-2.671C65.208,76.615,65.048,76.471,64.877,76.308L64.877,76.308
	z M84.896,59.861c-2.222,0-4.021,1.802-4.021,4.021c0,2.219,1.799,4.021,4.021,4.021c2.219,0,4.018-1.803,4.018-4.021
	C88.914,61.663,87.115,59.861,84.896,59.861L84.896,59.861z M60.693,59.861c-2.222,0-4.021,1.802-4.021,4.021
	c0,2.219,1.799,4.021,4.021,4.021c2.219,0,4.021-1.803,4.021-4.021C64.714,61.663,62.912,59.861,60.693,59.861L60.693,59.861z"/>
    <circle class="svg__path" cx="72.793" cy="34.188" r="10.298"/>
    <circle class="svg__path" cx="72.793" cy="105.526" r="10.298"/>
    <circle class="svg__path" cx="37.124" cy="69.857" r="10.298"/>
    <circle class="svg__path" cx="108.462" cy="69.857" r="10.298"/>
    <circle class="svg__path" cx="47.571" cy="95.079" r="10.298"/>
    <circle class="svg__path" cx="98.015" cy="44.635" r="10.298"/>
    <circle class="svg__path" cx="47.571" cy="44.635" r="10.298"/>
    <circle class="svg__path" cx="98.015" cy="95.079" r="10.298"/>
</svg>
