<?xml version="1.0" encoding="utf-8"?>
<!-- Generator: Adobe Illustrator 23.0.4, SVG Export Plug-In . SVG Version: 6.00 Build 0)  -->
<svg version="1.1" id="Layer_1" xmlns="http://www.w3.org/2000/svg" xmlns:xlink="http://www.w3.org/1999/xlink" x="0px" y="0px"
	 viewBox="0 0 141.732 141.732" style="enable-background:new 0 0 141.732 141.732;" xml:space="preserve">
<style type="text/css">
	.st0{fill:#7EBA02;}
	.st1{fill-rule:evenodd;clip-rule:evenodd;fill:#7EBA02;}
</style>
<path class="st0" d="M98.554,81.224c0.003-0.117,0.006-0.218,0.009-0.32c0.26-8.945,0.52-17.89,0.776-26.834
	c0.009-0.318,0.01-0.642-0.043-0.954c-0.185-1.093-0.892-1.691-2.012-1.76c-0.764-0.047-1.487,0.142-2.21,0.346
	c-9.056,2.554-18.112,5.106-27.168,7.659c-1.982,0.559-3.972,1.093-5.944,1.685c-1.206,0.363-2.244,1.036-3.08,1.991
	c-0.668,0.763-0.991,1.659-1.02,2.676c-0.323,11.263-0.658,22.526-0.973,33.79c-0.071,2.548-0.833,4.86-2.23,6.973
	c-1.758,2.658-4.143,4.595-6.984,5.993c-2.103,1.036-4.33,1.669-6.654,1.943c-3.139,0.37-6.221,0.147-9.183-1.042
	c-2.388-0.958-4.371-2.427-5.692-4.685c-1.027-1.755-1.406-3.661-1.232-5.678c0.26-3.018,1.576-5.568,3.576-7.776
	c3.253-3.592,7.353-5.64,12.094-6.451c2.075-0.355,4.163-0.417,6.25-0.098c1.218,0.186,2.403,0.5,3.487,1.116
	c0.031,0.017,0.064,0.03,0.134,0.062c0.004-0.145,0.008-0.262,0.011-0.379c0.379-13.046,0.769-26.093,1.125-39.14
	c0.058-2.12,0.632-4.045,1.786-5.8c1.594-2.423,3.718-4.201,6.532-5.015c3.39-0.981,6.804-1.88,10.208-2.814
	c3.566-0.978,7.133-1.955,10.699-2.934c5.895-1.618,11.787-3.248,17.687-4.847c1.746-0.473,3.484-0.426,5.114,0.458
	c1.798,0.975,2.716,2.555,2.959,4.545c0.068,0.555,0.061,1.124,0.044,1.685c-0.527,18.312-1.067,36.624-1.583,54.936
	c-0.081,2.876-1.04,5.402-2.775,7.659c-1.725,2.243-3.904,3.928-6.421,5.194c-2.44,1.228-5.025,1.946-7.743,2.168
	c-3.015,0.246-5.959-0.067-8.771-1.248c-2.443-1.027-4.462-2.569-5.784-4.917c-0.951-1.69-1.326-3.514-1.187-5.442
	c0.23-3.185,1.646-5.829,3.798-8.107c2.69-2.847,6.007-4.624,9.784-5.573c2.004-0.503,4.045-0.702,6.108-0.607
	c2.228,0.102,4.391,0.506,6.405,1.525C98.467,81.214,98.487,81.212,98.554,81.224z"/>
</svg>
