<svg class="svg svg--download" viewBox="0 0 141.732 141.732">
    <path class="svg__path" d="M119.458,75.497v20.755c0,6.47-5.288,11.758-11.755,11.758H37.64c-6.467,0-11.76-5.288-11.76-11.758V75.497
                                  h33.163v3.081c0,2.137,0.875,4.075,2.276,5.477V84.05c1.397,1.394,3.316,2.264,5.423,2.279v-4.108
                                  c-0.986-0.012-1.875-0.418-2.523-1.061v-0.007c-0.658-0.662-1.073-1.574-1.073-2.574V65.542c0-0.998,0.415-1.909,1.073-2.571v-0.007
                                  c0.657-0.655,1.566-1.063,2.571-1.063h14.916c1.005,0,1.919,0.408,2.571,1.063v0.007c0.667,0.662,1.073,1.573,1.073,2.571v13.036
                                  c0,1.001-0.406,1.912-1.073,2.574v0.007c-0.652,0.657-1.566,1.064-2.571,1.064l0,0v4.106l0,0c2.126,0,4.069-0.87,5.471-2.279
                                  l0.005,0.005c1.407-1.402,2.277-3.34,2.277-5.477v-3.081H119.458L119.458,75.497z M60.547,36.37
                                  c-1.421,0.931-3.321,0.537-4.249-0.879c-0.933-1.414-0.537-3.316,0.875-4.246c4.795-3.152,10.503-4.674,16.347-4.674
                                  c5.906,0,11.987,1.554,17.41,4.544c1.489,0.814,2.035,2.685,1.218,4.173c-0.817,1.486-2.687,2.033-4.176,1.214
                                  c-4.505-2.48-9.551-3.768-14.452-3.768C68.812,32.732,64.273,33.917,60.547,36.37L60.547,36.37z M59.044,71.391v-5.849
                                  c0-2.131,0.875-4.072,2.276-5.476v0.005c1.412-1.407,3.345-2.279,5.472-2.279h14.916c2.126,0,4.069,0.873,5.471,2.279l0.005-0.005
                                  c1.407,1.404,2.277,3.345,2.277,5.476v5.849h32.708V46.23c0-1.39-0.571-2.653-1.489-3.572c-0.914-0.916-2.18-1.486-3.572-1.486
                                  H28.356c-1.392,0-2.658,0.57-3.577,1.486c-0.914,0.919-1.484,2.182-1.484,3.572v25.161H59.044L59.044,71.391z M74.225,73.443
                                  c-1.86,0-3.374,1.52-3.374,3.377v12.775c0,1.854,1.513,3.374,3.374,3.374l0,0c1.856,0,3.374-1.52,3.374-3.374V76.819
                                  C77.599,74.963,76.081,73.443,74.225,73.443L74.225,73.443z"/>
</svg>