<?xml version="1.0" encoding="utf-8"?>
<!-- Generator: Adobe Illustrator 23.0.4, SVG Export Plug-In . SVG Version: 6.00 Build 0)  -->
<svg version="1.1" id="Vrstva_1" xmlns="http://www.w3.org/2000/svg" xmlns:xlink="http://www.w3.org/1999/xlink" x="0px" y="0px"
	 viewBox="0 0 100 100" style="enable-background:new 0 0 100 100;" xml:space="preserve">
<style type="text/css">
	.st0{fill:#0CACD6;}
	.st1{fill:#95829C;}
	.st2{fill:#ECDB00;}
	.st3{fill:#7EBA28;}
</style>
<g>
	<path class="st0" d="M50,69.172c-5.294,0-10.087-2.146-13.557-5.615L15.417,84.583C24.267,93.434,36.494,98.908,50,98.908
		s25.732-5.474,34.583-14.325L63.557,63.557C60.087,67.026,55.294,69.172,50,69.172z"/>
	<path class="st1" d="M50,30.828c5.294,0,10.087,2.146,13.557,5.615l21.026-21.026C75.732,6.566,63.506,1.092,50,1.092
		S24.267,6.566,15.417,15.417l21.027,21.027C39.913,32.974,44.706,30.828,50,30.828z"/>
	<path class="st2" d="M63.557,36.443c3.469,3.469,5.615,8.262,5.615,13.557s-2.146,10.087-5.615,13.557l21.027,21.027
		C93.434,75.733,98.908,63.506,98.908,50s-5.474-25.732-14.325-34.583L63.557,36.443z"/>
	<path class="st3" d="M30.828,50c0-5.294,2.146-10.087,5.615-13.557L15.417,15.417C6.566,24.268,1.092,36.494,1.092,50
		s5.474,25.733,14.325,34.583l21.027-21.027C32.974,60.087,30.828,55.294,30.828,50z"/>
</g>
</svg>
