<?xml version="1.0" encoding="utf-8"?>
<!-- Generator: Adobe Illustrator 23.0.4, SVG Export Plug-In . SVG Version: 6.00 Build 0)  -->
<svg version="1.1" id="Vrstva_1" xmlns="http://www.w3.org/2000/svg" xmlns:xlink="http://www.w3.org/1999/xlink" x="0px" y="0px"
	 viewBox="0 0 295.1 100" style="enable-background:new 0 0 295.1 100;" xml:space="preserve">
<style type="text/css">
	.st0{fill:#66596C;}
	.st1{fill:#0CACD6;}
	.st2{fill:#95829C;}
	.st3{fill:#ECDB00;}
	.st4{fill:#7EBA28;}
</style>
<g>
	<path class="st0" d="M126.4,24.2c-1.2,0-2.2,0.2-3,0.7s-1.2,1.2-1.2,2.2s0.4,1.8,1.2,2.3c0.8,0.5,2.5,1.1,5,1.7
		c2.5,0.6,4.5,1.5,5.7,2.6c1.3,1.1,1.9,2.8,1.9,4.9c0,2.2-0.8,3.9-2.4,5.3c-1.6,1.3-3.8,2-6.4,2c-3.9,0-7.4-1.3-10.4-4l2.7-3.1
		c2.5,2.2,5.1,3.3,7.8,3.3c1.3,0,2.4-0.3,3.2-0.9c0.8-0.6,1.2-1.3,1.2-2.3s-0.4-1.7-1.1-2.2c-0.8-0.5-2.4-1.1-5-1.7
		c-2.5-0.6-4.5-1.5-5.8-2.5c-1.3-1.1-2-2.7-2-5s0.8-4.1,2.5-5.3c1.7-1.2,3.8-1.9,6.2-1.9c1.6,0,3.2,0.3,4.7,0.8
		c1.6,0.5,2.9,1.3,4.1,2.2l-2.2,3.2c-0.7-0.7-1.7-1.2-3-1.6C128.9,24.4,127.7,24.2,126.4,24.2z M128.5,18.9h-3.7l-4.3-4.7h3.4l2.7,2
		l2.7-2h3.4L128.5,18.9z"/>
	<path class="st0" d="M141.3,21.1h4.2v12.1l11.3-12.1h5.3l-9.9,10.8l10.1,13.9h-5L149.1,35l-3.6,3.9v6.9h-4.2V21.1z"/>
	<path class="st0" d="M185.8,42.4c-2.5,2.4-5.6,3.7-9.3,3.7s-6.8-1.2-9.3-3.7c-2.5-2.4-3.8-5.5-3.8-9.1s1.2-6.7,3.8-9.1
		c2.5-2.4,5.6-3.7,9.3-3.7s6.8,1.2,9.3,3.7c2.5,2.4,3.8,5.5,3.8,9.1C189.6,36.9,188.3,39.9,185.8,42.4z M182.8,26.9
		c-1.7-1.7-3.8-2.6-6.2-2.6s-4.5,0.9-6.2,2.6s-2.5,3.9-2.5,6.4s0.8,4.6,2.5,6.4c1.7,1.7,3.8,2.6,6.2,2.6s4.5-0.9,6.2-2.6
		c1.7-1.7,2.5-3.9,2.5-6.4S184.5,28.6,182.8,26.9z"/>
	<path class="st0" d="M194.9,45.8V21.1h4.2v20.8h11.3v4h-15.5V45.8z"/>
	<path class="st0" d="M218.4,40.2l-2.5,5.6h-4.5l10.9-24.7h4.5l10.9,24.7h-4.5l-2.5-5.6H218.4z M229.1,36.3l-4.5-10.2l-4.5,10.2
		H229.1z"/>
	<path class="st0" d="M118.9,79.9V55.1h4.2v10.7h12.3V55.1h4.2v24.7h-4.2V69.7h-12.3v10.1h-4.2V79.9z"/>
	<path class="st0" d="M167.1,76.4c-2.5,2.4-5.6,3.7-9.3,3.7s-6.8-1.2-9.3-3.7s-3.8-5.5-3.8-9.1s1.2-6.7,3.8-9.1s5.6-3.7,9.3-3.7
		s6.8,1.2,9.3,3.7s3.8,5.5,3.8,9.1C170.8,71,169.6,74,167.1,76.4z M164,61c-1.7-1.7-3.8-2.6-6.2-2.6s-4.5,0.9-6.2,2.6
		c-1.7,1.7-2.5,3.9-2.5,6.4s0.8,4.6,2.5,6.4c1.7,1.7,3.8,2.6,6.2,2.6s4.5-0.9,6.2-2.6s2.5-3.9,2.5-6.4S165.7,62.7,164,61z"/>
	<path class="st0" d="M176.1,79.9V55.1h4.2v20.8h11.3v4C191.6,79.9,176.1,79.9,176.1,79.9z"/>
	<path class="st0" d="M208.8,59h-13.9v-3.8h19.7v3.3L200.2,76l0,0h14.6v3.9h-20.4v-3.2l14.4-17.6L208.8,59L208.8,59z"/>
	<path class="st0" d="M240.3,76.4c-2.5,2.4-5.6,3.7-9.3,3.7s-6.8-1.2-9.3-3.7S218,71,218,67.3c0-3.6,1.2-6.7,3.8-9.1
		s5.6-3.7,9.3-3.7s6.8,1.2,9.3,3.7c2.5,2.4,3.8,5.5,3.8,9.1C244,71,242.8,74,240.3,76.4z M237.2,61c-1.7-1.7-3.8-2.6-6.2-2.6
		s-4.5,0.9-6.2,2.6c-1.7,1.7-2.5,3.9-2.5,6.4s0.8,4.6,2.5,6.4c1.7,1.7,3.8,2.6,6.2,2.6s4.5-0.9,6.2-2.6s2.5-3.9,2.5-6.4
		S238.9,62.7,237.2,61z"/>
	<path class="st0" d="M260.2,79.9h-4.7l-9.9-24.7h4.7l7.6,18.5l7.6-18.5h4.7L260.2,79.9z"/>
	<path class="st0" d="M275.7,74.2l-2.5,5.6h-4.5l10.9-24.7h4.5L295,79.8h-4.5l-2.5-5.6H275.7z M286.4,70.4l-4.5-10.2l-4.5,10.2
		H286.4z"/>
</g>
<g>
	<path class="st1" d="M50,69.319c-5.335,0-10.165-2.162-13.661-5.658L15.152,84.848C24.07,93.767,36.391,99.283,50,99.283
		s25.93-5.516,34.848-14.435L63.661,63.661C60.165,67.157,55.335,69.319,50,69.319z"/>
	<path class="st2" d="M50,30.681c5.335,0,10.165,2.162,13.661,5.658l21.188-21.188C75.93,6.233,63.609,0.717,50,0.717
		S24.07,6.233,15.152,15.152l21.188,21.188C39.835,32.843,44.665,30.681,50,30.681z"/>
	<path class="st3" d="M63.661,36.339c3.496,3.496,5.658,8.326,5.658,13.661c0,5.335-2.162,10.165-5.658,13.661l21.188,21.188
		C93.767,75.93,99.283,63.609,99.283,50s-5.516-25.93-14.435-34.848L63.661,36.339z"/>
	<path class="st4" d="M30.681,50c0-5.335,2.162-10.165,5.658-13.661L15.152,15.152C6.233,24.07,0.717,36.391,0.717,50
		s5.516,25.93,14.435,34.848l21.188-21.188C32.843,60.165,30.681,55.335,30.681,50z"/>
</g>
</svg>
