<?xml version="1.0" encoding="utf-8"?>
<!-- Generator: Adobe Illustrator 23.0.6, SVG Export Plug-In . SVG Version: 6.00 Build 0)  -->
<svg version="1.1" id="Vrstva_1" xmlns="http://www.w3.org/2000/svg" xmlns:xlink="http://www.w3.org/1999/xlink" x="0px" y="0px"
	 viewBox="0 0 283.465 283.465" style="enable-background:new 0 0 283.465 283.465;" xml:space="preserve">
<style type="text/css">
	.st0{fill:#FFFFFF;}
</style>
<g>
	<path class="st0" d="M251.717,40.212h-27.898V13.657c0-1.381-1.119-2.5-2.5-2.5H28.952c-1.381,0-2.5,1.119-2.5,2.5v225.764
		c0,1.381,1.119,2.5,2.5,2.5h27.897v26.556c0,1.381,1.119,2.5,2.5,2.5h192.368c1.381,0,2.5-1.119,2.5-2.5V42.712
		C254.217,41.331,253.098,40.212,251.717,40.212z M31.452,16.157h187.367v220.764H31.452V16.157z M249.217,265.977H61.849v-24.056
		h159.469c1.381,0,2.5-1.119,2.5-2.5V45.212h25.398V265.977z"/>
	<path class="st0" d="M48.677,44.103h28.054c1.381,0,2.5-1.119,2.5-2.5s-1.119-2.5-2.5-2.5H48.677c-1.381,0-2.5,1.119-2.5,2.5
		S47.296,44.103,48.677,44.103z"/>
	<path class="st0" d="M48.677,71.38h28.054c1.381,0,2.5-1.119,2.5-2.5s-1.119-2.5-2.5-2.5H48.677c-1.381,0-2.5,1.119-2.5,2.5
		S47.296,71.38,48.677,71.38z"/>
	<path class="st0" d="M48.677,98.658h28.054c1.381,0,2.5-1.119,2.5-2.5s-1.119-2.5-2.5-2.5H48.677c-1.381,0-2.5,1.119-2.5,2.5
		S47.296,98.658,48.677,98.658z"/>
	<path class="st0" d="M48.677,141.875h152.938c1.381,0,2.5-1.119,2.5-2.5s-1.119-2.5-2.5-2.5H48.677c-1.381,0-2.5,1.119-2.5,2.5
		S47.296,141.875,48.677,141.875z"/>
	<path class="st0" d="M48.663,168.726l152.938,0.855c0.005,0,0.009,0,0.014,0c1.374,0,2.492-1.11,2.5-2.486
		c0.008-1.381-1.105-2.506-2.486-2.514l-152.937-0.855c-0.005,0-0.01,0-0.015,0c-1.374,0-2.492,1.11-2.5,2.486
		C46.169,167.593,47.282,168.718,48.663,168.726z"/>
	<path class="st0" d="M201.614,196.858c1.374,0,2.492-1.11,2.5-2.486c0.008-1.381-1.105-2.506-2.486-2.514l-152.937-0.855
		c-0.005,0-0.01,0-0.015,0c-1.374,0-2.492,1.11-2.5,2.486c-0.008,1.381,1.105,2.506,2.486,2.514l152.938,0.855
		C201.606,196.858,201.61,196.858,201.614,196.858z"/>
	<path class="st0" d="M119.037,102.967l13.091-2.324l3.673,9.823c0.326,0.871,1.108,1.489,2.032,1.604
		c0.104,0.013,0.208,0.02,0.311,0.02c0.812,0,1.583-0.396,2.053-1.075l18.68-26.914c0.597,0.038,1.197,0.064,1.803,0.064
		c0.644,0,1.281-0.029,1.914-0.072l18.686,26.923c0.471,0.678,1.241,1.075,2.054,1.075c0.103,0,0.206-0.006,0.311-0.02
		c0.923-0.115,1.705-0.733,2.031-1.604l3.674-9.823l13.09,2.324c0.996,0.175,2.003-0.265,2.547-1.12
		c0.544-0.855,0.518-1.954-0.066-2.782l-20.084-28.489c2.616-4.285,4.125-9.316,4.125-14.693c0-15.595-12.687-28.282-28.281-28.282
		s-28.282,12.687-28.282,28.282c0,5.414,1.532,10.476,4.181,14.78l-20.023,28.402c-0.583,0.828-0.61,1.926-0.066,2.782
		C117.034,102.701,118.039,103.142,119.037,102.967z M197.335,96.982l-9.159-1.626c-1.195-0.213-2.357,0.457-2.779,1.585l-2.73,7.3
		l-14.615-21.057c5.332-1.441,10.045-4.402,13.641-8.393L197.335,96.982z M160.681,32.601c12.837,0,23.281,10.444,23.281,23.282
		s-10.444,23.282-23.281,23.282c-12.838,0-23.282-10.444-23.282-23.282S147.843,32.601,160.681,32.601z M139.735,74.866
		c3.609,3.978,8.334,6.924,13.674,8.346l-14.596,21.03l-2.73-7.3c-0.423-1.129-1.594-1.801-2.779-1.585l-9.161,1.626L139.735,74.866
		z"/>
</g>
</svg>
