<?xml version="1.0" encoding="utf-8"?>
<!-- Generator: Adobe Illustrator 23.0.4, SVG Export Plug-In . SVG Version: 6.00 Build 0)  -->
<svg version="1.1" id="Vrstva_1" xmlns="http://www.w3.org/2000/svg" xmlns:xlink="http://www.w3.org/1999/xlink" x="0px" y="0px"
	 viewBox="0 0 196.143 196.143" style="enable-background:new 0 0 196.143 196.143;" xml:space="preserve">
<style type="text/css">
	.st0{fill:#FFFFFF;}
</style>
<path class="st0" d="M170.566,135.461c-0.068-0.067-0.139-0.131-0.214-0.19l-25.778-20.128c-2.317-2.262-5.38-3.505-8.641-3.505
	c-3.312,0-6.419,1.283-8.748,3.612l-12.52,12.518c-2.37,2.371-3.132,5.717-3.357,8.079c-5.97-0.897-21.727-4.339-33.963-16.578
	C65.43,107.354,61.401,91.921,60.19,85.554c3.281-0.021,6.354-1.3,8.657-3.605l12.52-12.517c2.329-2.329,3.612-5.436,3.612-8.749
	c-0.001-3.25-1.235-6.302-3.482-8.617L62.096,25.611c-0.07-0.096-0.148-0.187-0.233-0.271c-2.329-2.329-5.436-3.612-8.75-3.612
	c-3.313,0-6.42,1.283-8.749,3.612L28.301,41.403c-2.964,2.964-5.564,18.341-3.067,36.651c2.3,16.855,9.63,41.536,31.497,63.403
	c27.24,27.24,54.022,32.958,71.692,32.958c13.497,0,24.231-3.544,26.79-6.103l15.352-15.353c2.33-2.33,3.614-5.437,3.614-8.75
	C174.179,140.898,172.896,137.79,170.566,135.461z M167.252,149.645l-15.35,15.35c-1.047,1.002-9.582,4.732-23.477,4.732
	c-16.785,0-42.273-5.48-68.378-31.585c-38.75-38.752-31.71-89.245-28.43-93.426l16.063-16.063c1.444-1.444,3.374-2.238,5.434-2.238
	c2.005,0,3.885,0.752,5.315,2.121l19.389,26.44c0.07,0.096,0.148,0.187,0.232,0.271c1.445,1.445,2.24,3.375,2.24,5.436
	c0,2.061-0.795,3.991-2.238,5.434l-12.52,12.517c-1.438,1.439-3.364,2.232-5.423,2.232c-0.293,0-0.585-0.027-0.875-0.059
	L47.799,69.372c-0.916-0.915-2.399-0.915-3.314,0c-0.916,0.915-0.916,2.399,0,3.314L55.08,83.282
	c0.274,2.426,3.053,23.404,18.951,39.301c14.894,14.899,34.105,17.698,38.505,18.155l10.929,10.931
	c0.458,0.458,1.057,0.687,1.657,0.687c0.6,0,1.199-0.229,1.657-0.687c0.916-0.915,0.916-2.399,0-3.314l-10.869-10.871
	c0.015-1.464,0.27-4.601,2.07-6.403l12.519-12.517c1.444-1.444,3.374-2.238,5.434-2.238c2.061,0,3.991,0.795,5.434,2.238
	c0.068,0.068,0.139,0.131,0.214,0.19l25.765,20.118c1.384,1.433,2.146,3.322,2.146,5.337
	C169.492,146.271,168.696,148.201,167.252,149.645z"/>
</svg>
