<?xml version="1.0" encoding="utf-8"?>
<!-- Generator: Adobe Illustrator 23.0.4, SVG Export Plug-In . SVG Version: 6.00 Build 0)  -->
<svg version="1.1" id="Vrstva_1" xmlns="http://www.w3.org/2000/svg" xmlns:xlink="http://www.w3.org/1999/xlink" x="0px" y="0px"
	 viewBox="0 0 196.143 196.143" style="enable-background:new 0 0 196.143 196.143;" xml:space="preserve">
<style type="text/css">
	.st0{fill:#FFFFFF;}
</style>
<g>
	<path class="st0" d="M183.504,54.706c-0.005-0.097-0.014-0.192-0.029-0.288c-0.014-0.087-0.032-0.171-0.053-0.254
		c-0.022-0.087-0.048-0.172-0.08-0.256c-0.032-0.087-0.068-0.17-0.108-0.253c-0.037-0.076-0.077-0.15-0.121-0.223
		c-0.051-0.085-0.107-0.165-0.168-0.243c-0.029-0.038-0.049-0.08-0.08-0.116c-0.023-0.027-0.052-0.047-0.076-0.073
		c-0.066-0.072-0.138-0.138-0.211-0.203c-0.064-0.056-0.127-0.111-0.194-0.16c-0.074-0.054-0.152-0.101-0.232-0.147
		c-0.075-0.044-0.149-0.087-0.227-0.123c-0.082-0.038-0.167-0.068-0.253-0.098c-0.083-0.029-0.165-0.057-0.25-0.078
		c-0.085-0.021-0.171-0.034-0.259-0.046c-0.094-0.013-0.186-0.024-0.281-0.028c-0.037-0.001-0.072-0.011-0.109-0.011H54.314
		c-0.037,0-0.072,0.01-0.109,0.011c-0.095,0.004-0.188,0.015-0.281,0.028c-0.087,0.013-0.173,0.025-0.258,0.046
		c-0.086,0.021-0.169,0.049-0.253,0.078c-0.085,0.03-0.168,0.059-0.249,0.096c-0.079,0.037-0.155,0.081-0.231,0.125
		c-0.078,0.046-0.155,0.091-0.228,0.144c-0.068,0.05-0.132,0.106-0.197,0.162c-0.073,0.065-0.144,0.13-0.21,0.202
		c-0.024,0.026-0.053,0.046-0.076,0.073c-0.031,0.036-0.051,0.078-0.08,0.116c-0.06,0.079-0.117,0.159-0.168,0.244
		c-0.044,0.073-0.084,0.146-0.12,0.222c-0.04,0.083-0.076,0.167-0.108,0.254c-0.031,0.084-0.057,0.169-0.079,0.255
		c-0.022,0.084-0.04,0.168-0.054,0.255c-0.015,0.096-0.024,0.191-0.029,0.287c-0.003,0.049-0.015,0.095-0.015,0.144v37.528H17.092
		c-1.516,0-2.745,1.229-2.745,2.745c0,1.516,1.229,2.745,2.745,2.745H51.57v4.986c0,1.516,1.229,2.745,2.745,2.745
		c1.516,0,2.745-1.229,2.745-2.745V60.784l58.708,49.882c0.513,0.435,1.145,0.653,1.778,0.653c0.633,0,1.265-0.218,1.778-0.653
		l58.706-49.882v77.43H54.314c-0.448,0-0.864,0.117-1.237,0.307c-0.373-0.19-0.79-0.307-1.237-0.307H14.292
		c-1.516,0-2.745,1.229-2.745,2.745s1.229,2.745,2.745,2.745H51.84c0.448,0,0.864-0.117,1.237-0.307
		c0.373,0.19,0.79,0.307,1.237,0.307h126.46c1.516,0,2.745-1.229,2.745-2.745V54.85C183.519,54.8,183.507,54.755,183.504,54.706z
		 M117.545,104.972L61.785,57.594h111.52L117.545,104.972z"/>
	<path class="st0" d="M97.824,123.315c1.516,0,2.745-1.229,2.745-2.745s-1.229-2.745-2.745-2.745H34.465
		c-1.516,0-2.745,1.229-2.745,2.745s1.229,2.745,2.745,2.745H97.824z"/>
</g>
</svg>
