<?xml version="1.0" encoding="utf-8"?>
<!-- Generator: Adobe Illustrator 23.0.4, SVG Export Plug-In . SVG Version: 6.00 Build 0)  -->
<svg version="1.1" id="Vrstva_1" xmlns="http://www.w3.org/2000/svg" xmlns:xlink="http://www.w3.org/1999/xlink" x="0px" y="0px"
	 viewBox="0 0 196.143 196.143" style="enable-background:new 0 0 196.143 196.143;" xml:space="preserve">
<style type="text/css">
	.st0{fill:#FFFFFF;}
</style>
<g>
	<g>
		<g>
			<g>
				<path class="st0" d="M99.029,91.924c-1.273,0-2.554-0.09-3.837-0.273c-11.288-1.603-20.36-10.202-22.574-21.399
					c-0.256-1.29,0.583-2.543,1.874-2.799c1.29-0.254,2.544,0.584,2.799,1.875c1.822,9.213,9.285,16.287,18.572,17.606
					c5.835,0.83,11.658-0.665,16.377-4.215c4.719-3.55,7.775-8.729,8.604-14.581c1.714-12.081-6.706-23.306-18.768-25.021
					c-9.22-1.311-18.334,3.352-22.667,11.61c-0.612,1.165-2.052,1.613-3.215,1.003c-1.165-0.611-1.614-2.05-1.003-3.215
					c5.265-10.038,16.337-15.712,27.556-14.113c14.662,2.085,24.896,15.726,22.815,30.406c-1.009,7.111-4.722,13.404-10.456,17.718
					C110.404,90.063,104.806,91.924,99.029,91.924z"/>
			</g>
		</g>
		<g>
			<path class="st0" d="M98.97,158.933c-0.812,0-1.569-0.414-2.007-1.099c-1.78-2.785-43.595-68.471-43.595-92.791
				c0-25.179,20.457-45.663,45.602-45.663c21.362,0,39.634,14.538,44.435,35.353c0.773,3.358,1.166,6.827,1.166,10.31
				c0,2.153-0.321,4.691-0.954,7.543c-1.73,7.821-5.892,18.507-12.372,31.76c-12.634,25.835-30.093,53.214-30.268,53.488
				C100.539,158.519,99.782,158.933,98.97,158.933z M98.97,24.144c-22.519,0-40.839,18.347-40.839,40.899
				c0,20.036,32.367,73.404,40.84,87.028c4.938-7.938,17.999-29.38,27.994-49.818c6.315-12.915,10.352-23.243,12.001-30.697
				c0.558-2.516,0.841-4.707,0.841-6.514c0-3.124-0.352-6.232-1.045-9.239C134.463,37.164,118.1,24.144,98.97,24.144z"/>
		</g>
	</g>
	<g>
		<path class="st0" d="M99.203,175.86c-26.703,0-47.62-9.513-47.62-21.657c0-5.804,4.696-11.189,13.222-15.164
			c1.195-0.556,2.61-0.039,3.165,1.153c0.556,1.192,0.04,2.609-1.152,3.165c-6.656,3.102-10.472,7.055-10.472,10.846
			c0,7.99,17.601,16.894,42.857,16.894c25.256,0,42.856-8.903,42.856-16.894c0-4.362-4.812-8.738-13.201-12.008
			c-1.225-0.478-1.832-1.858-1.354-3.084c0.477-1.226,1.855-1.832,3.084-1.355c10.469,4.08,16.234,9.921,16.234,16.447
			C146.822,166.347,125.906,175.86,99.203,175.86z"/>
	</g>
</g>
</svg>
