<?xml version="1.0" encoding="utf-8"?>
<!-- Generator: Adobe Illustrator 23.0.4, SVG Export Plug-In . SVG Version: 6.00 Build 0)  -->
<svg version="1.1" id="Vrstva_1" xmlns="http://www.w3.org/2000/svg" xmlns:xlink="http://www.w3.org/1999/xlink" x="0px" y="0px"
     viewBox="0 0 675.87 88.569" style="enable-background:new 0 0 675.87 88.569;" xml:space="preserve">
<style type="text/css">
	.st0{fill:#7EBA02;}
	.st1{fill-rule:evenodd;clip-rule:evenodd;fill:#648C04;}
	.st2{fill:#648C04;}
</style>

<g>
	<g>
		<path class="st1" d="M20.453,37.209c2.901,3.187,6.725,5.351,10.408,5.487c0.216,0.005,0.449,0.011,0.714-0.002l-0.151-4.537
			c-0.104,0.002-0.234,0.002-0.387-0.005c-2.432-0.093-5.101-1.666-7.225-3.996c-2.177-2.391-3.721-5.516-3.821-8.625
			c-0.011-0.198-0.005-0.431,0.004-0.679l-4.547-0.176c-0.005,0.309-0.01,0.646,0.006,1.006
			C15.588,29.921,17.608,34.087,20.453,37.209z"/>
		<path class="st1" d="M26.565,18.837c1.765-1.553,1.942-4.247,0.389-6.012c-1.553-1.765-4.249-1.936-6.015-0.383
			c-1.766,1.553-1.94,4.249-0.388,6.015C22.105,20.222,24.799,20.39,26.565,18.837z"/>
		<path class="st1" d="M43.501,38.089c1.765-1.553,1.94-4.249,0.387-6.014c-1.553-1.766-4.248-1.934-6.013-0.381
			c-1.766,1.553-1.943,4.247-0.389,6.013C39.038,39.472,41.735,39.642,43.501,38.089z"/>
		<path class="st1" d="M79.319,20.686l-0.007-0.47l-0.005-0.292c-0.003-0.169-0.013-0.338-0.018-0.509l-0.016-0.286
			c-0.009-0.195-0.016-0.389-0.032-0.574l-0.017-0.314c-0.011-0.169-0.024-0.341-0.041-0.51l-0.022-0.294
			c-0.009-0.167-0.029-0.328-0.046-0.496l-0.024-0.26c-0.024-0.203-0.047-0.414-0.073-0.619l-0.026-0.214
			c-0.027-0.216-0.06-0.439-0.09-0.657l-0.024-0.158c-0.028-0.208-0.058-0.417-0.09-0.62l-0.025-0.121
			c-0.039-0.238-0.076-0.474-0.121-0.711l-0.025-0.129c-0.045-0.245-0.092-0.484-0.144-0.728l-0.015-0.073
			c-0.102-0.504-0.218-0.996-0.339-1.495l-0.032-0.119c-0.059-0.233-0.122-0.462-0.18-0.695l-0.035-0.133
			c-0.21-0.775-0.443-1.538-0.699-2.301l-0.013-0.033C76.246,5.162,75.029,2.524,73.527,0H18.997
			c0.813,1.024,1.656,2.038,2.537,3.039c10.568,12.013,23.63,19.667,35.822,22.096c-1.032,6.077-0.563,12.861,1.327,19.828
			l-0.151,0.133c-0.184,0.162-0.373,0.324-0.565,0.485l-0.101,0.089c-0.19,0.155-0.37,0.301-0.561,0.453l-0.091,0.072
			c-0.168,0.132-0.337,0.264-0.507,0.394l-0.098,0.074c-0.197,0.145-0.384,0.284-0.575,0.42l-0.108,0.08
			c-0.39,0.278-0.788,0.547-1.195,0.807l-0.133,0.089c-0.19,0.118-0.379,0.236-0.57,0.351l-0.131,0.083
			c-0.178,0.103-0.346,0.207-0.522,0.304l-0.108,0.062c-0.2,0.115-0.402,0.228-0.599,0.336l-0.134,0.069
			c-0.193,0.105-0.388,0.207-0.578,0.305l-0.04,0.019l-0.011,0.006l-0.608,0.299l-0.161,0.076c-0.194,0.094-0.392,0.183-0.589,0.274
			l-0.143,0.06c-0.187,0.083-0.363,0.161-0.547,0.237l-0.109,0.043c-0.207,0.089-0.411,0.17-0.624,0.252l-0.151,0.06
			c-0.207,0.079-0.404,0.151-0.601,0.223l-0.035,0.015l-0.014,0.004l-0.622,0.217l-0.188,0.064
			c-0.196,0.064-0.395,0.124-0.598,0.189l-0.155,0.047c-0.176,0.049-0.348,0.103-0.529,0.156l-0.159,0.042
			c-0.209,0.058-0.418,0.116-0.63,0.172l-0.138,0.028c-0.209,0.058-0.413,0.103-0.622,0.153l-0.044,0.014l-0.028,0.005l-0.632,0.133
			l-0.178,0.038c-0.207,0.041-0.416,0.082-0.622,0.116l-0.156,0.027c-0.175,0.032-0.346,0.06-0.52,0.083l-0.197,0.035
			c-0.203,0.028-0.406,0.056-0.616,0.086l-0.183,0.023c-0.176,0.021-0.366,0.046-0.547,0.062l-0.124,0.016
			c-0.211,0.018-0.416,0.036-0.627,0.055l-0.198,0.015c-0.211,0.019-0.413,0.03-0.626,0.047l-0.174,0.006
			c-0.172,0.008-0.343,0.017-0.518,0.021l-0.172,0.009c-0.208,0.004-0.416,0.008-0.624,0.012l-0.205-0.002
			c-0.178,0.001-0.362,0.005-0.537,0l-0.132-0.002c-0.205-0.003-0.406-0.009-0.611-0.02l-0.235-0.009
			c-0.201-0.006-0.404-0.015-0.6-0.034l-0.153-0.008c-0.174-0.013-0.348-0.027-0.523-0.04l-0.209-0.016
			c-0.196-0.019-0.394-0.04-0.591-0.062l-0.219-0.027c-0.161-0.016-0.326-0.038-0.49-0.057l-0.176-0.024l-0.605-0.087l-0.229-0.038
			c-0.188-0.029-0.366-0.065-0.556-0.096l-0.231-0.041c-0.149-0.031-0.299-0.062-0.455-0.092l-0.211-0.046
			c-0.199-0.041-0.392-0.085-0.593-0.129l-0.219-0.055c-0.15-0.031-0.298-0.071-0.447-0.111l-0.201-0.052
			c-5.899-1.546-11.414-4.809-15.744-9.732c-4.333-4.926-6.865-10.809-7.65-16.862l-0.025-0.205
			c-0.017-0.149-0.037-0.301-0.051-0.456l-0.027-0.225c-0.017-0.204-0.037-0.403-0.05-0.602l-0.023-0.22
			c-0.007-0.156-0.019-0.309-0.029-0.458l-0.013-0.237c-0.005-0.19-0.019-0.373-0.025-0.564l-0.009-0.232
			c-0.002-0.205-0.004-0.411-0.009-0.61l0.001-0.175c0-0.167-0.001-0.333,0.003-0.495l0.003-0.219
			c0.002-0.201,0.008-0.397,0.012-0.596l0.012-0.209c0.009-0.175,0.013-0.345,0.026-0.524l0.01-0.155
			c0.008-0.194,0.025-0.396,0.045-0.597l0.022-0.234c0.015-0.205,0.034-0.405,0.058-0.609l0.015-0.131
			c0.018-0.174,0.045-0.357,0.069-0.532l0.024-0.204c0.028-0.208,0.061-0.412,0.091-0.618l0.03-0.169
			c0.027-0.173,0.056-0.342,0.087-0.511l0.028-0.171c0.046-0.207,0.08-0.408,0.126-0.615l0.04-0.195
			c0.046-0.207,0.089-0.407,0.135-0.614l0.031-0.122c0.04-0.177,0.09-0.36,0.13-0.537l0.048-0.176c0.056-0.204,0.11-0.402,0.164-0.6
			l0.06-0.191c0.047-0.168,0.095-0.335,0.147-0.507l0.049-0.148c0.061-0.2,0.128-0.401,0.192-0.604l0.063-0.169
			c0.07-0.208,0.143-0.411,0.211-0.612l0.012-0.023l0.018-0.044c0.076-0.201,0.146-0.398,0.229-0.6l0.048-0.131
			c0.084-0.2,0.166-0.403,0.25-0.603l0.062-0.152C8.44,8.591,8.514,8.425,8.587,8.259l0.066-0.148
			c0.09-0.193,0.178-0.38,0.264-0.569l0.087-0.178c0.095-0.197,0.193-0.39,0.295-0.589l0.005-0.013l0.019-0.033
			c0.097-0.187,0.193-0.373,0.3-0.565l0.075-0.147c0.11-0.198,0.217-0.39,0.33-0.586l0.058-0.1c0.102-0.171,0.199-0.338,0.307-0.51
			l0.078-0.134C10.584,4.5,10.7,4.317,10.816,4.134l0.094-0.152c0.127-0.189,0.253-0.378,0.378-0.56l0.006-0.012l0.024-0.037
			c0.122-0.176,0.25-0.354,0.376-0.534l0.088-0.122c0.131-0.184,0.268-0.37,0.408-0.554l0.075-0.099
			c0.121-0.159,0.243-0.315,0.37-0.477l0.094-0.124c0.141-0.172,0.282-0.345,0.423-0.518l0.104-0.121
			C13.492,0.542,13.736,0.271,13.981,0H0v18.463l2.076,2.36c-0.105,8.471,2.804,17.012,8.842,23.875
			c6.037,6.863,14.135,10.835,22.553,11.813l6.866,7.805c2.537,2.884,6.957,3.145,9.855,0.633l11.971-10.388
			c1.08-0.779,2.142-1.625,3.16-2.52c8.76-7.706,13.467-18.306,13.953-29.11l0.004-0.004l0.012-0.209l0.01-0.302
			c0.001-0.183,0.004-0.365,0.012-0.559l0.006-0.29c-0.003-0.188,0.001-0.387,0-0.582L79.319,20.686z"/>
	</g>
</g>
<g>
	<g>
		<path class="st1" d="M424.297,43.489c3.45-2.371,6.037-5.766,6.654-9.293c0.034-0.207,0.07-0.431,0.093-0.687l-4.386-0.453
			c-0.011,0.1-0.029,0.225-0.056,0.372c-0.41,2.329-2.276,4.69-4.8,6.426c-2.589,1.78-5.8,2.853-8.805,2.539
			c-0.192-0.015-0.416-0.052-0.653-0.093l-0.77,4.353c0.297,0.045,0.621,0.094,0.969,0.127
			C416.64,47.21,420.916,45.815,424.297,43.489z"/>
		<path class="st1" d="M406.261,40.92c1.904-1.262,2.422-3.833,1.16-5.737c-1.262-1.904-3.831-2.43-5.735-1.168
			c-1.904,1.262-2.424,3.834-1.162,5.738C401.786,41.657,404.357,42.181,406.261,40.92z"/>
		<path class="st1" d="M427.023,27.162c1.904-1.262,2.424-3.834,1.162-5.739c-1.262-1.904-3.833-2.428-5.737-1.166
			c-1.904,1.262-2.422,3.833-1.16,5.737C422.549,27.898,425.118,28.424,427.023,27.162z"/>
		<path class="st1" d="M376.793,45.043c0.068,0.125,0.146,0.259,0.245,0.407l11.366,17.153c2.058,3.106,6.291,3.968,9.4,1.908
			l8.297-5.498c8.139,1.219,16.743-0.454,24.145-5.359c7.402-4.905,12.293-12.174,14.345-20.147l8.418-5.578
			c3.111-2.061,3.945-6.281,1.909-9.402l-8.418-12.892c-0.607-1.142-1.281-2.276-2.008-3.374c-0.518-0.781-1.066-1.529-1.627-2.262
			h-63.547C369.535,12.758,368.11,30.645,376.793,45.043z M417.547,6.379c5.713,1.795,12.303,2.24,19.258,1.339l0.108,0.163
			c0.131,0.198,0.263,0.402,0.393,0.608l0.072,0.109c0.124,0.203,0.241,0.396,0.362,0.6l0.057,0.098
			c0.105,0.18,0.21,0.359,0.312,0.54l0.058,0.104c0.114,0.209,0.223,0.407,0.328,0.608l0.062,0.115
			c0.216,0.412,0.422,0.831,0.619,1.256l0.068,0.14c0.088,0.198,0.177,0.396,0.262,0.595l0.062,0.137
			c0.076,0.185,0.154,0.361,0.224,0.543l0.046,0.112c0.084,0.207,0.166,0.417,0.244,0.621l0.049,0.138
			c0.075,0.199,0.148,0.4,0.217,0.596l0.013,0.041l0.004,0.012l0.207,0.624l0.052,0.165c0.065,0.199,0.124,0.402,0.186,0.603
			l0.039,0.145c0.056,0.19,0.107,0.37,0.156,0.558l0.027,0.11c0.058,0.211,0.11,0.419,0.16,0.634l0.038,0.153
			c0.049,0.209,0.092,0.408,0.135,0.608l0.01,0.036l0.002,0.013l0.127,0.627l0.037,0.189c0.035,0.197,0.068,0.397,0.103,0.601
			l0.025,0.155c0.024,0.176,0.053,0.349,0.081,0.53l0.019,0.159c0.028,0.209,0.057,0.418,0.082,0.629l0.009,0.137
			c0.028,0.209,0.045,0.411,0.065,0.619l0.008,0.045l0.001,0.028l0.044,0.626l0.013,0.176c0.012,0.205,0.024,0.411,0.03,0.614
			l0.005,0.153c0.008,0.173,0.012,0.34,0.012,0.511l0.008,0.195c0,0.199,0,0.398,0.001,0.604l-0.002,0.179
			c-0.003,0.173-0.004,0.359-0.012,0.535l-0.001,0.122c-0.01,0.206-0.02,0.405-0.03,0.61l-0.012,0.193
			c-0.009,0.206-0.025,0.402-0.038,0.609l-0.017,0.168c-0.014,0.166-0.029,0.332-0.048,0.501l-0.014,0.166
			c-0.024,0.201-0.047,0.402-0.071,0.602l-0.029,0.197c-0.022,0.171-0.043,0.349-0.071,0.517l-0.019,0.126
			c-0.03,0.197-0.062,0.39-0.1,0.586l-0.04,0.225c-0.032,0.193-0.067,0.387-0.112,0.573l-0.027,0.146
			c-0.036,0.166-0.072,0.332-0.108,0.498l-0.043,0.2c-0.044,0.186-0.091,0.374-0.137,0.56l-0.055,0.208
			c-0.037,0.153-0.08,0.309-0.12,0.464l-0.046,0.166l-0.163,0.57l-0.067,0.216c-0.053,0.177-0.11,0.344-0.166,0.523l-0.07,0.217
			c-0.05,0.139-0.099,0.279-0.149,0.426l-0.072,0.197c-0.066,0.186-0.134,0.367-0.202,0.554l-0.082,0.204
			c-0.049,0.14-0.108,0.278-0.165,0.416l-0.076,0.186c-2.267,5.474-6.135,10.35-11.444,13.869c-5.312,3.52-11.309,5.18-17.238,5.138
			l-0.201-0.003c-0.145-0.004-0.295-0.004-0.445-0.011l-0.22-0.004c-0.199-0.01-0.392-0.018-0.586-0.031l-0.215-0.007
			c-0.151-0.014-0.3-0.022-0.445-0.032l-0.23-0.019c-0.184-0.02-0.362-0.031-0.546-0.051l-0.225-0.022
			c-0.198-0.025-0.396-0.05-0.589-0.072l-0.169-0.024c-0.161-0.022-0.321-0.043-0.476-0.069l-0.21-0.032
			c-0.193-0.028-0.382-0.06-0.572-0.09l-0.2-0.039c-0.167-0.031-0.331-0.058-0.501-0.095l-0.148-0.03
			c-0.186-0.034-0.378-0.077-0.568-0.122l-0.222-0.052c-0.195-0.042-0.385-0.087-0.578-0.137l-0.124-0.031
			c-0.165-0.041-0.337-0.09-0.503-0.137l-0.193-0.05c-0.197-0.055-0.388-0.113-0.583-0.169l-0.159-0.052
			c-0.163-0.049-0.322-0.099-0.48-0.151l-0.161-0.05c-0.193-0.071-0.382-0.131-0.575-0.203l-0.182-0.065
			c-0.193-0.071-0.38-0.139-0.573-0.211l-0.113-0.046c-0.166-0.062-0.335-0.135-0.5-0.196l-0.163-0.07
			c-0.189-0.081-0.372-0.159-0.556-0.237l-0.176-0.083c-0.155-0.068-0.31-0.136-0.469-0.208l-0.136-0.066
			c-0.184-0.085-0.369-0.176-0.556-0.265l-0.155-0.083c-0.191-0.094-0.377-0.192-0.561-0.284l-0.021-0.015l-0.04-0.023
			c-0.183-0.099-0.364-0.193-0.547-0.299l-0.12-0.063c-0.182-0.107-0.366-0.213-0.547-0.32l-0.138-0.08
			c-0.156-0.096-0.306-0.188-0.456-0.281l-0.134-0.083c-0.174-0.112-0.342-0.221-0.513-0.329l-0.16-0.107
			c-0.177-0.117-0.35-0.238-0.528-0.361l-0.012-0.007l-0.029-0.023c-0.167-0.118-0.333-0.235-0.504-0.364l-0.132-0.091
			c-0.176-0.132-0.347-0.261-0.521-0.395l-0.089-0.069c-0.151-0.121-0.299-0.237-0.451-0.363l-0.118-0.093
			c-0.164-0.134-0.324-0.269-0.485-0.404l-0.134-0.11c-0.165-0.147-0.33-0.294-0.49-0.437l-0.011-0.007l-0.033-0.028
			c-0.153-0.14-0.308-0.287-0.464-0.433l-0.106-0.1c-0.16-0.15-0.321-0.307-0.479-0.465l-0.085-0.086
			c-0.137-0.137-0.271-0.276-0.41-0.419l-0.107-0.107c-0.147-0.158-0.295-0.317-0.443-0.476l-0.103-0.116
			c-0.315-0.347-0.618-0.701-0.916-1.06l-0.081-0.102c-0.142-0.177-0.286-0.352-0.432-0.539l-0.073-0.095
			c-0.127-0.164-0.251-0.331-0.379-0.496l-0.065-0.093c-0.143-0.189-0.273-0.374-0.411-0.567l-0.072-0.109
			c-0.139-0.199-0.276-0.4-0.407-0.598l-0.188-0.289c2.103-1.122,4.189-2.362,6.249-3.728
			C404.509,29.354,413.6,17.792,417.547,6.379z"/>
	</g>
</g>
<g>
	<g>
		<path class="st1" d="M646.656,77.475c4.706-1.884,8.665-5.207,10.332-9.21c0.095-0.235,0.198-0.49,0.292-0.788l-5.061-1.701
			c-0.04,0.115-0.094,0.258-0.165,0.424c-1.104,2.642-3.936,4.936-7.378,6.316c-3.532,1.414-7.61,1.829-11.078,0.659
			c-0.222-0.069-0.477-0.172-0.747-0.284l-2.067,4.938c0.339,0.133,0.708,0.277,1.112,0.407
			C636.621,79.835,642.043,79.324,646.656,77.475z"/>
		<path class="st1" d="M654.216,58.911c2.585-0.984,3.883-3.885,2.898-6.471c-0.984-2.585-3.883-3.887-6.468-2.903
			c-2.585,0.985-3.88,3.884-2.895,6.469C648.736,58.591,651.631,59.895,654.216,58.911z"/>
		<path class="st1" d="M622.462,60.271c-2.584,0.984-3.883,3.885-2.898,6.47c0.985,2.585,3.884,3.888,6.468,2.904
			c2.585-0.985,3.88-3.884,2.895-6.47C627.943,60.591,625.047,59.287,622.462,60.271z"/>
		<path class="st1" d="M655.143,6.776L655.14,6.77l-0.226-0.099l-0.329-0.136c-0.202-0.077-0.401-0.154-0.612-0.243l-0.317-0.126
			c-0.209-0.074-0.426-0.16-0.641-0.24l-0.33-0.121l-0.521-0.186l-0.324-0.115c-0.187-0.067-0.378-0.124-0.569-0.19l-0.322-0.1
			c-0.219-0.071-0.435-0.142-0.646-0.2l-0.354-0.111c-0.191-0.058-0.386-0.114-0.578-0.165l-0.333-0.096
			c-0.188-0.059-0.373-0.104-0.565-0.153l-0.296-0.08c-0.233-0.057-0.476-0.118-0.712-0.174l-0.246-0.06
			c-0.249-0.059-0.508-0.114-0.761-0.172l-0.184-0.038c-0.24-0.055-0.484-0.108-0.721-0.156l-0.143-0.023
			c-0.279-0.055-0.554-0.112-0.833-0.159L644.426,3.6c-0.289-0.051-0.572-0.098-0.861-0.141l-0.086-0.014
			c-0.598-0.095-1.188-0.17-1.787-0.242l-0.144-0.014c-0.281-0.031-0.56-0.056-0.84-0.088l-0.16-0.016
			c-0.94-0.087-1.877-0.146-2.824-0.177l-0.042,0c-6.232-0.203-12.61,0.797-18.801,3.154c-24.374,9.283-36.918,36.111-28.759,60.62
			c0.047,0.166,0.104,0.344,0.181,0.546l8.127,21.34h29.899c-0.213-0.046-0.43-0.076-0.643-0.125l-0.236-0.056
			c-0.171-0.043-0.347-0.083-0.523-0.131l-0.259-0.063c-0.232-0.065-0.459-0.125-0.684-0.193l-0.252-0.065
			c-0.175-0.056-0.348-0.106-0.517-0.157l-0.266-0.084c-0.212-0.073-0.42-0.132-0.632-0.205l-0.26-0.086
			c-0.227-0.082-0.455-0.165-0.676-0.242l-0.193-0.073c-0.184-0.068-0.368-0.136-0.544-0.208l-0.24-0.094
			c-0.22-0.085-0.435-0.172-0.652-0.259l-0.226-0.099c-0.189-0.082-0.375-0.156-0.567-0.245l-0.167-0.075
			c-0.21-0.089-0.426-0.191-0.639-0.295l-0.249-0.12c-0.22-0.101-0.432-0.205-0.647-0.315l-0.139-0.07
			c-0.185-0.092-0.375-0.196-0.558-0.295l-0.215-0.11c-0.218-0.117-0.429-0.237-0.643-0.355l-0.174-0.103
			c-0.18-0.101-0.354-0.203-0.528-0.306l-0.177-0.102c-0.209-0.135-0.417-0.256-0.626-0.392l-0.198-0.125
			c-0.209-0.135-0.412-0.266-0.621-0.401l-0.121-0.085c-0.179-0.117-0.36-0.248-0.539-0.364l-0.175-0.126
			c-0.201-0.146-0.398-0.287-0.593-0.427l-0.186-0.145c-0.165-0.121-0.33-0.243-0.499-0.371l-0.144-0.115
			c-0.195-0.15-0.389-0.306-0.587-0.461l-0.161-0.139c-0.2-0.162-0.394-0.327-0.587-0.484l-0.021-0.023l-0.041-0.038
			c-0.19-0.166-0.378-0.325-0.567-0.499l-0.125-0.107c-0.186-0.175-0.375-0.349-0.561-0.524l-0.142-0.131
			c-0.159-0.154-0.312-0.304-0.465-0.453l-0.136-0.133c-0.176-0.179-0.345-0.353-0.519-0.525l-0.161-0.169
			c-0.179-0.186-0.35-0.374-0.528-0.567l-0.012-0.011l-0.028-0.035c-0.166-0.183-0.331-0.366-0.499-0.563l-0.132-0.143
			c-0.173-0.203-0.34-0.4-0.51-0.605l-0.087-0.106c-0.147-0.183-0.29-0.359-0.436-0.549l-0.115-0.141
			c-0.158-0.201-0.311-0.404-0.466-0.607l-0.129-0.166c-0.156-0.218-0.312-0.435-0.462-0.647l-0.011-0.011l-0.032-0.042
			c-0.144-0.207-0.287-0.421-0.434-0.635l-0.098-0.147c-0.149-0.22-0.297-0.448-0.442-0.677l-0.078-0.124
			c-0.126-0.198-0.248-0.398-0.373-0.604l-0.098-0.155c-0.132-0.226-0.264-0.453-0.396-0.68l-0.09-0.165
			c-0.28-0.493-0.543-0.993-0.8-1.495l-0.069-0.142c-0.121-0.247-0.245-0.492-0.367-0.752l-0.061-0.131
			c-0.106-0.228-0.209-0.458-0.316-0.687l-0.052-0.127c-0.119-0.262-0.223-0.514-0.335-0.78l-0.056-0.148
			c-0.112-0.272-0.22-0.546-0.322-0.815l-0.145-0.391c2.783-0.767,5.577-1.677,8.374-2.743
			c17.589-6.699,31.401-17.941,39.098-30.375c6.272,3.639,13.94,5.916,22.396,6.702l0.084,0.221
			c0.102,0.269,0.204,0.545,0.302,0.823l0.056,0.148c0.092,0.273,0.179,0.532,0.268,0.805l0.042,0.13
			c0.077,0.24,0.152,0.481,0.225,0.721l0.041,0.139c0.079,0.277,0.155,0.54,0.226,0.806l0.043,0.152
			c0.146,0.544,0.278,1.094,0.397,1.648l0.043,0.183c0.052,0.257,0.104,0.515,0.152,0.773l0.037,0.178
			c0.041,0.239,0.086,0.467,0.12,0.701l0.024,0.144c0.044,0.267,0.085,0.537,0.124,0.798l0.021,0.176
			c0.036,0.256,0.068,0.512,0.098,0.762l0.005,0.052l0.002,0.015l0.079,0.793l0.017,0.208c0.024,0.252,0.04,0.508,0.059,0.762
			l0.008,0.182c0.015,0.24,0.028,0.466,0.036,0.701l0.003,0.138c0.012,0.264,0.018,0.524,0.02,0.791l0.004,0.191
			c0.002,0.26,0,0.507-0.002,0.754l0.002,0.045l-0.002,0.016l-0.017,0.775l-0.007,0.233c-0.011,0.243-0.026,0.487-0.038,0.737
			l-0.012,0.19c-0.018,0.214-0.03,0.426-0.046,0.647l-0.02,0.192c-0.022,0.254-0.044,0.509-0.07,0.764l-0.026,0.164
			c-0.022,0.254-0.056,0.498-0.088,0.748l-0.003,0.055l-0.006,0.033l-0.114,0.751L673.002,58c-0.04,0.245-0.081,0.491-0.128,0.733
			l-0.034,0.182c-0.036,0.206-0.076,0.405-0.122,0.607l-0.042,0.232c-0.053,0.235-0.106,0.471-0.159,0.714l-0.05,0.211
			c-0.049,0.203-0.101,0.422-0.157,0.629l-0.034,0.143c-0.067,0.24-0.132,0.473-0.198,0.713l-0.065,0.225
			c-0.066,0.241-0.137,0.468-0.206,0.709l-0.065,0.194c-0.061,0.193-0.123,0.385-0.19,0.58l-0.061,0.193
			c-0.081,0.231-0.163,0.462-0.244,0.693l-0.087,0.225c-0.072,0.197-0.144,0.4-0.221,0.592l-0.056,0.144
			c-0.087,0.225-0.177,0.444-0.273,0.665l-0.107,0.255c-0.09,0.219-0.182,0.439-0.284,0.647l-0.071,0.166
			c-0.086,0.187-0.173,0.373-0.259,0.559l-0.104,0.224c-0.101,0.208-0.206,0.417-0.311,0.626l-0.12,0.231
			c-0.085,0.171-0.176,0.343-0.265,0.516l-0.099,0.184l-0.345,0.63l-0.136,0.237c-0.11,0.195-0.222,0.377-0.335,0.573l-0.14,0.238
			c-0.096,0.151-0.191,0.304-0.289,0.463l-0.138,0.214c-0.127,0.202-0.256,0.397-0.386,0.601l-0.151,0.219
			c-0.095,0.152-0.201,0.299-0.306,0.447l-0.14,0.2c-4.133,5.864-9.999,10.597-17.207,13.342c-1.793,0.683-3.606,1.218-5.426,1.612
			h12.374c7.436-4.11,13.225-10.277,16.92-17.492l2.584-0.984V23.568C670.59,16.023,663.353,10.272,655.143,6.776z"/>
	</g>
</g>
<g>
	<path class="st1" d="M153.51,62.98c2.001-1.169,2.673-3.743,1.503-5.744c-1.169-2.001-3.741-2.677-5.742-1.508
		c-2.004,1.171-2.677,3.744-1.507,5.745C148.934,63.474,151.507,64.151,153.51,62.98z"/>
	<path class="st1" d="M154.843,72.935c-0.544,2.341-2.573,4.624-5.225,6.238c-2.728,1.655-6.047,2.558-9.073,2.072
		c-0.197-0.031-0.417-0.078-0.657-0.134l-1.027,4.364c0.299,0.072,0.624,0.132,0.979,0.189c4.123,0.664,8.536-0.5,12.097-2.664
		c3.629-2.207,6.444-5.504,7.271-9.036c0.048-0.206,0.093-0.44,0.135-0.694l-4.42-0.712
		C154.904,72.662,154.879,72.788,154.843,72.935z"/>
	<path class="st1" d="M127.447,68.485c-2.003,1.171-2.676,3.744-1.507,5.745c1.169,2.001,3.742,2.678,5.746,1.507
		c2.001-1.169,2.676-3.745,1.506-5.745C132.022,67.99,129.448,67.315,127.447,68.485z"/>
	<path class="st1" d="M112.698,79.233c-2.675-4.577-4.053-9.551-4.252-14.503l47.623-27.836l-0.151-0.259
		c4.34,2.618,8.103,6.323,10.837,11.001c8.139,13.925,4.303,31.549-8.37,40.933h5.691c9.016-8.723,12.655-21.694,9.564-33.788
		l0.371-0.217l-0.216-0.131l1.394-3.417l2.395-5.871c1.183-2.765-0.611-4.165-2.214-4.303l-5.455-0.783l-3.205-0.464l-0.113-3.851
		l-0.197-6.622c-0.044-3.145-2.156-3.708-3.61-3.155l-5.074,1.593l-2.981,0.935l-1.601-3.625l-2.753-6.226
		c-1.265-2.978-3.331-2.61-4.386-1.461l-3.817,3.693l-2.24,2.167l-2.81-2.764l-4.833-4.76c-2.263-2.294-3.929-1.06-4.401,0.489
		l-1.895,5.154l-1.113,3.031l-3.538-1.435l-6.076-2.464c-2.876-1.221-3.846,0.672-3.656,2.348l0.352,5.728l0.207,3.363l-3.648,0.149
		l-6.274,0.254c-2.987,0.07-3.1,2.292-2.277,3.808l2.537,5.308l1.404,2.929l-5.605,3.276l0.005,0.008L95.491,49
		c-2.582,1.344-1.816,3.51-0.504,4.605l4.282,3.97l2.52,2.33l-2.073,2.966l-3.559,5.101c-1.737,2.392-0.223,4.126,1.347,4.61
		l5.294,1.946l3.112,1.141l-0.656,3.715l-1.124,6.387c-0.247,1.271-0.033,2.182,0.412,2.799h16.512
		C117.762,86.126,114.897,82.995,112.698,79.233z"/>
</g>
<g>
	<path class="st1" d="M220.908,35.583c1.801-1.271,2.234-3.763,0.963-5.564c-1.272-1.804-3.766-2.232-5.567-0.962
		c-1.801,1.271-2.234,3.764-0.961,5.567C216.613,36.426,219.107,36.854,220.908,35.583z"/>
	<path class="st1" d="M196.982,23.821c0.014-0.189,0.04-0.402,0.074-0.634l-4.219-0.619c-0.044,0.29-0.075,0.602-0.1,0.943
		c-0.294,3.961,1.167,8.049,3.506,11.248c2.386,3.26,5.739,5.66,9.153,6.157c0.2,0.028,0.425,0.053,0.668,0.071l0.316-4.246
		c-0.1-0.009-0.221-0.023-0.363-0.045c-2.262-0.326-4.591-2.063-6.336-4.445C197.891,29.799,196.766,26.728,196.982,23.821z"/>
	<path class="st1" d="M251.124,0h-35.495l24.644,34.932l0.233-0.164c-2.128,4.325-5.335,8.192-9.546,11.163
		c-13.435,9.478-32.017,6.269-41.495-7.166c-8.636-12.242-6.736-28.757,3.834-38.765h-5.757l0.062,0.384l0.249,0.353
		c-9.077,11.277-10.016,27.629-1.253,40.05c8.759,12.416,24.48,17.018,38.149,12.25l0.235,0.333l0.107-0.215l3.351,1.044
		l5.758,1.793c2.716,0.897,3.897-0.917,3.898-2.448l0.299-5.233l0.18-3.075l3.64-0.42l6.26-0.724
		c2.977-0.297,3.339-2.344,2.697-3.677l-1.921-4.679l-1.128-2.749l3.306-1.811l5.677-3.114c2.719-1.441,2.203-3.368,1.029-4.275
		l-3.81-3.318l-2.235-1.947l2.392-2.887l4.119-4.967c1.99-2.331,0.685-3.81-0.82-4.131l-5.038-1.378l-2.962-0.808l1.073-3.469
		L251.124,0z"/>
	<path class="st1" d="M207.049,15.939c1.801-1.271,2.232-3.765,0.961-5.566c-1.272-1.804-3.766-2.232-5.567-0.962
		s-2.234,3.764-0.961,5.567C202.753,16.779,205.248,17.209,207.049,15.939z"/>
</g>
<g>
	<path class="st1" d="M318.787,76.69c-2.078-1.498-4.981-1.027-6.479,1.05c-1.5,2.08-1.028,4.982,1.05,6.48
		c2.078,1.498,4.98,1.03,6.48-1.05C321.336,81.092,320.864,78.188,318.787,76.69z"/>
	<path class="st1" d="M343.553,81.441c2.678-3.854,4.047-8.447,3.301-12.386c-0.044-0.23-0.103-0.487-0.174-0.761l-4.785,1.259
		c0.028,0.113,0.058,0.252,0.088,0.416c0.498,2.609-0.53,5.824-2.486,8.643c-2.015,2.894-4.964,5.293-8.239,6.156
		c-0.213,0.057-0.456,0.109-0.724,0.159l0.685,3.642h3.973C338.54,87.035,341.463,84.446,343.553,81.441z"/>
	<path class="st1" d="M335.125,54.031c-2.078-1.498-4.979-1.03-6.477,1.047c-1.5,2.08-1.028,4.982,1.05,6.48
		c2.078,1.498,4.98,1.03,6.48-1.05C337.676,58.43,337.203,55.529,335.125,54.031z"/>
	<path class="st1" d="M291.426,82.454l35.656-49.451l-0.268-0.194c5.557,0.702,11.019,2.761,15.876,6.264
		c15.497,11.174,19.003,32.803,7.829,48.3c-0.295,0.409-0.6,0.804-0.909,1.196h5.034c9.448-14.172,8.33-32.509-1.797-45.36
		l0.277-0.385l-0.277-0.036l-0.122-4.077l-0.209-7.004c-0.042-3.323-2.482-3.935-4.164-3.356l-5.863,1.652l-3.447,0.966l-1.839-3.84
		l-3.164-6.603c-1.453-3.158-3.839-2.781-5.061-1.572l-4.413,3.881l-2.594,2.28l-3.241-2.946l-5.569-5.058
		c-2.612-2.442-4.534-1.146-5.086,0.488l-2.204,5.441l-1.293,3.193l-4.077-1.535l-7.015-2.645c-3.314-1.305-4.445,0.689-4.228,2.464
		l0.393,6.056l0.233,3.561l-4.217,0.134l-7.243,0.231c-3.453,0.054-3.585,2.401-2.643,4.01l2.921,5.63l1.715,3.305l-3.62,1.784
		l-6.226,3.066c-2.987,1.408-2.106,3.704-0.596,4.868l4.941,4.227l2.73,2.33l-4.197,5.82l0.009,0.006l-2.167,2.819
		c-2.007,2.514-0.263,4.36,1.553,4.878l6.105,2.094l3.59,1.226l-0.766,3.925l-0.794,4.084h14.32
		C293.787,86.651,292.485,84.605,291.426,82.454z"/>
</g>
<g>
	<path class="st1" d="M525.944,63.541c-2.285-1.164-5.08-0.253-6.243,2.029c-1.162,2.282-0.256,5.079,2.03,6.243
		c2.282,1.162,5.077,0.251,6.239-2.032C529.133,67.499,528.226,64.703,525.944,63.541z"/>
	<path class="st1" d="M513.268,78.997c-2.502,0.891-5.836,0.368-8.922-1.134c-3.169-1.549-5.99-4.096-7.344-7.2
		c-0.089-0.202-0.177-0.434-0.268-0.691l-4.672,1.651c0.112,0.321,0.25,0.659,0.409,1.023c1.845,4.231,5.563,7.64,9.701,9.66
		c4.219,2.057,8.967,2.707,12.745,1.366c0.22-0.079,0.465-0.176,0.726-0.289l-1.977-4.536
		C513.559,78.892,513.426,78.943,513.268,78.997z"/>
	<path class="st1" d="M496.835,59.134c2.282,1.162,5.08,0.252,6.243-2.03c1.162-2.282,0.253-5.08-2.03-6.242
		c-2.285-1.164-5.08-0.253-6.243,2.029C493.643,55.173,494.549,57.97,496.835,59.134z"/>
	<path class="st1" d="M482.245,43.562c2.659-5.221,6.463-9.473,10.949-12.615l54.326,27.668l0.15-0.295
		c0.157,5.599-1.042,11.311-3.76,16.648c-2.948,5.787-7.303,10.386-12.435,13.601h6.844c1.065-0.916,2.089-1.89,3.057-2.93
		l0.423,0.215l-0.007-0.279l4.01-0.744l6.89-1.279c3.278-0.55,3.509-3.055,2.68-4.629l-2.529-5.541l-1.482-3.258l3.514-2.405
		l6.041-4.138c2.898-1.919,2.161-4.219,0.779-5.242l-4.511-3.767l-2.65-2.214l2.416-3.654l4.146-6.278
		c2.014-2.955,0.438-4.656-1.26-4.951l-5.714-1.345l-3.353-0.789l0.893-4.264l1.541-7.337c0.782-3.475-1.361-4.287-3.083-3.801
		l-5.925,1.315l-3.483,0.775l-0.778-4.147l-1.337-7.122c-0.582-3.404-2.922-3.176-4.367-1.998l-5.116,3.748l-3.004,2.201
		l-2.317-3.304l-3.983-5.683c-1.848-2.736-3.983-1.515-4.902,0.156l-3.421,5.529l-1.885,3.055l-6.394-3.256l-0.005,0.009
		l-3.117-1.71c-2.792-1.598-4.349,0.407-4.583,2.281l-1.135,6.353l-0.663,3.735l-3.996-0.156l-6.869-0.264
		c-3.262-0.188-3.97,2.257-3.483,4.005l1.352,6.085l0.797,3.575l-3.846,1.608l-6.611,2.768c-3.159,1.258-2.901,3.72-1.77,5.046
		l3.601,4.758l1.778,2.356l0.447,0.228c-2.638,13.548,2.211,27.634,12.73,36.683h6.859C479.666,79.162,474.046,59.66,482.245,43.562
		z"/>
</g>
</svg>
