<?xml version="1.0" encoding="utf-8"?>
<!-- Generator: Adobe Illustrator 23.0.4, SVG Export Plug-In . SVG Version: 6.00 Build 0)  -->
<svg version="1.1" id="Vrstva_1" xmlns="http://www.w3.org/2000/svg" xmlns:xlink="http://www.w3.org/1999/xlink" x="0px" y="0px"
	 viewBox="0 0 675.87 88.569" style="enable-background:new 0 0 675.87 88.569;" xml:space="preserve">
<style type="text/css">
	.st0{fill:#7EBA02;}
	.st1{fill-rule:evenodd;clip-rule:evenodd;fill:#648C04;}
	.st2{fill:#648C04;}
</style>
<g>
	<path class="st2" d="M269.566,78.475c-1.339-1.227-2.84-2.214-4.515-2.925c-2.262-0.961-4.609-1.381-7.063-1.066
		c-1.949,0.25-3.695,0.975-5.228,2.225c-4.856,3.958-9.718,7.909-14.578,11.861h8.25c1.232-1.001,2.462-2.004,3.693-3.005
		c0.071-0.058,0.141-0.115,0.228-0.186c0.017,0.058,0.026,0.083,0.032,0.11c0.188,0.949,0.603,1.805,1.112,2.615
		c0.101,0.161,0.215,0.311,0.322,0.466H274.1c0.18-1.398-0.019-2.789-0.491-4.168C272.806,82.057,271.375,80.133,269.566,78.475z"/>
	<path class="st2" d="M244.262,66.966c0.71-1.968,0.592-3.936-0.043-5.893c-0.731-2.251-2.04-4.141-3.713-5.788
		c-1.509-1.485-3.241-2.641-5.2-3.452c-2.02-0.837-4.115-1.264-6.308-1.14c-2.206,0.124-4.177,0.841-5.908,2.251
		C212.066,61.926,201.03,70.892,190,79.866c-0.338,0.275-0.676,0.559-0.968,0.88c-1.046,1.152-1.51,2.493-1.171,4.043
		c0.307,1.406,1.16,2.452,2.324,3.238c0.268,0.181,0.537,0.36,0.805,0.541h29.545c-5.076-3.357-10.151-6.713-15.228-10.07
		c-0.486-0.322-0.964-0.65-1.324-1.124c-0.527-0.693-0.534-1.412,0.014-2.075c0.156-0.189,0.348-0.353,0.539-0.509
		c5.387-4.384,10.776-8.766,16.165-13.148c0.061-0.05,0.122-0.099,0.193-0.157c0.027,0.045,0.038,0.056,0.042,0.069
		c0.422,1.7,1.281,3.176,2.351,4.538c0.99,1.26,2.142,2.359,3.453,3.282c2.472,1.739,5.198,2.787,8.235,2.925
		c2.43,0.11,4.702-0.397,6.691-1.877C242.869,69.527,243.752,68.382,244.262,66.966z"/>
	<path class="st2" d="M367.807,44.444c1.231-1.308,1.793-2.844,1.434-4.641c-0.325-1.629-1.288-2.852-2.614-3.783
		c-4.481-3.146-8.978-6.268-13.468-9.4c-2.716-1.895-5.432-3.791-8.148-5.685c-2.593-1.808-5.167-3.643-7.785-5.416
		c-2.172-1.471-4.613-1.915-7.194-1.624c-1.869,0.211-3.523,0.918-5.016,2.092c-9.186,7.229-18.391,14.433-27.591,21.645
		c-0.083,0.065-0.165,0.13-0.267,0.21c-0.018-0.066-0.029-0.096-0.034-0.127c-0.197-1.099-0.659-2.094-1.229-3.04
		c-0.976-1.619-2.215-3.022-3.648-4.247c-3.275-2.8-7.033-4.449-11.369-4.631c-2.665-0.112-5.175,0.442-7.402,1.992
		c-1.488,1.036-2.583,2.388-3.204,4.1c-0.798,2.202-0.673,4.409,0.035,6.602c0.878,2.72,2.49,4.97,4.543,6.919
		c1.52,1.443,3.231,2.613,5.149,3.468c2.59,1.155,5.289,1.688,8.126,1.375c2.254-0.248,4.282-1.048,6.077-2.459
		c7.935-6.235,15.881-12.456,23.821-18.685c0.716-0.562,1.518-0.853,2.427-0.83c1.136,0.029,2.195,0.357,3.135,0.98
		c1.538,1.018,3.045,2.082,4.565,3.127c6.945,4.773,13.889,9.545,20.835,14.317c0.555,0.381,1.099,0.77,1.504,1.323
		c0.594,0.81,0.587,1.64-0.059,2.394c-0.184,0.215-0.408,0.4-0.632,0.576c-6.305,4.947-12.612,9.892-18.919,14.837
		c-0.071,0.056-0.143,0.112-0.225,0.177c-0.031-0.052-0.043-0.066-0.047-0.081c-0.452-1.97-1.413-3.69-2.619-5.283
		c-1.116-1.474-2.422-2.766-3.917-3.857c-2.816-2.057-5.94-3.322-9.441-3.544c-2.801-0.177-5.433,0.362-7.757,2.029
		c-1.407,1.009-2.448,2.311-3.067,3.934c-0.859,2.255-0.764,4.528-0.072,6.799c0.797,2.613,2.268,4.819,4.164,6.753
		c1.71,1.745,3.685,3.113,5.928,4.089c2.313,1.007,4.722,1.543,7.254,1.445c2.548-0.098,4.836-0.884,6.862-2.476
		c12.903-10.135,25.819-20.252,38.729-30.378C367.068,45.13,367.464,44.809,367.807,44.444z"/>
	<path class="st2" d="M214.009,30.194c1.009-0.856,1.548-1.935,1.433-3.28c-0.104-1.219-0.708-2.195-1.602-2.986
		c-3.022-2.673-6.057-5.331-9.087-7.995c-1.833-1.612-3.665-3.224-5.497-4.836c-1.749-1.538-3.483-3.094-5.254-4.608
		c-1.469-1.256-3.22-1.783-5.134-1.783c-1.386,0-2.656,0.381-3.846,1.118c-7.323,4.535-14.659,9.051-21.99,13.573
		c-0.066,0.041-0.132,0.081-0.213,0.131c-0.008-0.05-0.013-0.073-0.015-0.096c-0.053-0.821-0.31-1.588-0.649-2.327
		c-0.581-1.266-1.373-2.396-2.321-3.411c-2.167-2.32-4.783-3.838-7.943-4.33c-1.942-0.302-3.826-0.103-5.584,0.848
		c-1.175,0.636-2.089,1.535-2.684,2.738c-0.766,1.547-0.856,3.173-0.519,4.838c0.419,2.064,1.413,3.844,2.755,5.442
		c0.994,1.182,2.151,2.18,3.484,2.964c1.801,1.059,3.734,1.672,5.837,1.678c1.671,0.004,3.222-0.414,4.653-1.299
		c6.325-3.911,12.657-7.81,18.985-11.717c0.571-0.353,1.182-0.499,1.846-0.408c0.83,0.115,1.577,0.443,2.215,0.976
		c1.042,0.872,2.058,1.776,3.085,2.666c4.692,4.068,9.383,8.136,14.075,12.203c0.375,0.325,0.741,0.655,0.992,1.093
		c0.368,0.643,0.294,1.25-0.241,1.748c-0.153,0.142-0.332,0.259-0.51,0.37c-5.025,3.102-10.052,6.203-15.078,9.303
		c-0.057,0.035-0.114,0.07-0.18,0.111c-0.018-0.041-0.026-0.052-0.027-0.063c-0.168-1.48-0.73-2.819-1.482-4.084
		c-0.696-1.172-1.545-2.225-2.55-3.148c-1.893-1.739-4.075-2.923-6.621-3.374c-2.037-0.361-4.008-0.183-5.848,0.846
		c-1.113,0.622-1.984,1.491-2.57,2.628c-0.815,1.58-0.933,3.253-0.614,4.972c0.368,1.979,1.263,3.716,2.492,5.289
		c1.108,1.419,2.442,2.584,4.003,3.484c1.611,0.929,3.33,1.519,5.193,1.657c1.874,0.138,3.614-0.248,5.229-1.247
		c10.285-6.356,20.578-12.699,30.867-19.049C213.412,30.635,213.728,30.433,214.009,30.194z"/>
	<path class="st2" d="M512.931,41.061c-7.691-3.749-15.372-7.519-23.057-11.282c-0.069-0.034-0.138-0.068-0.223-0.109
		c0.038-0.033,0.054-0.05,0.073-0.063c0.662-0.48,1.17-1.102,1.611-1.779c0.756-1.159,1.285-2.423,1.636-3.757
		c0.801-3.05,0.69-6.052-0.572-8.968c-0.776-1.792-1.941-3.269-3.672-4.242c-1.157-0.651-2.397-0.941-3.723-0.804
		c-1.705,0.176-3.12,0.962-4.339,2.127c-1.513,1.446-2.481,3.224-3.112,5.199c-0.467,1.461-0.692,2.962-0.644,4.498
		c0.065,2.075,0.574,4.023,1.684,5.793c0.882,1.406,2.056,2.488,3.557,3.221c6.637,3.242,13.269,6.495,19.904,9.742
		c0.599,0.293,1.046,0.729,1.32,1.335c0.343,0.758,0.464,1.56,0.353,2.378c-0.181,1.338-0.401,2.67-0.605,4.005
		c-0.932,6.097-1.863,12.195-2.794,18.292c-0.074,0.487-0.157,0.969-0.393,1.413c-0.345,0.65-0.894,0.909-1.596,0.724
		c-0.2-0.053-0.394-0.141-0.581-0.233c-5.27-2.578-10.538-5.158-15.806-7.738c-0.06-0.029-0.119-0.058-0.188-0.092
		c0.025-0.037,0.03-0.049,0.039-0.057c1.154-0.925,1.981-2.107,2.646-3.409c0.616-1.206,1.051-2.478,1.294-3.81
		c0.458-2.511,0.296-4.973-0.674-7.35c-0.776-1.903-1.97-3.464-3.809-4.465c-1.113-0.606-2.303-0.877-3.57-0.767
		c-1.76,0.153-3.227,0.94-4.503,2.12c-1.468,1.358-2.452,3.03-3.123,4.896c-0.605,1.683-0.877,3.421-0.805,5.21
		c0.073,1.845,0.488,3.603,1.359,5.241c0.877,1.648,2.124,2.905,3.819,3.733c10.79,5.272,21.574,10.559,32.361,15.839
		c0.331,0.162,0.668,0.32,1.018,0.43c1.254,0.394,2.446,0.275,3.515-0.534c0.969-0.734,1.469-1.758,1.66-2.928
		c0.645-3.955,1.269-7.914,1.902-11.871c0.383-2.394,0.767-4.787,1.149-7.181c0.365-2.285,0.754-4.566,1.088-6.856
		c0.277-1.9-0.208-3.65-1.222-5.258C515.174,42.535,514.181,41.67,512.931,41.061z"/>
	<path class="st2" d="M668.525,51.268c-0.21-1.364-0.778-2.557-1.684-3.616c-5.574-6.521-11.131-13.058-16.694-19.589
		c-0.05-0.059-0.1-0.117-0.162-0.19c0.048-0.015,0.07-0.024,0.092-0.029c0.8-0.177,1.516-0.546,2.193-0.992
		c1.158-0.764,2.15-1.714,3.006-2.801c1.956-2.485,3.053-5.29,3.058-8.475c0.003-1.958-0.478-3.782-1.681-5.369
		c-0.804-1.061-1.828-1.824-3.102-2.228c-1.639-0.519-3.254-0.362-4.841,0.222c-1.969,0.725-3.57,1.974-4.939,3.537
		c-1.013,1.157-1.82,2.447-2.39,3.879c-0.77,1.934-1.081,3.929-0.767,6c0.249,1.646,0.896,3.109,1.984,4.384
		c4.808,5.634,9.607,11.276,14.411,16.913c0.434,0.509,0.671,1.088,0.681,1.755c0.013,0.834-0.197,1.62-0.625,2.328
		c-0.701,1.158-1.436,2.295-2.157,3.441c-3.293,5.235-6.587,10.47-9.88,15.705c-0.263,0.418-0.532,0.829-0.926,1.142
		c-0.577,0.46-1.186,0.479-1.757,0.028c-0.163-0.129-0.306-0.287-0.441-0.446c-3.816-4.477-7.629-8.955-11.443-13.433
		c-0.043-0.051-0.086-0.101-0.136-0.16c0.038-0.024,0.047-0.034,0.058-0.036c1.431-0.39,2.664-1.146,3.796-2.078
		c1.048-0.863,1.956-1.859,2.712-2.987c1.425-2.127,2.26-4.455,2.318-7.029c0.047-2.06-0.427-3.973-1.719-5.628
		c-0.781-1.002-1.768-1.727-2.976-2.132c-1.679-0.563-3.344-0.426-4.988,0.15c-1.892,0.662-3.466,1.806-4.829,3.255
		c-1.228,1.306-2.173,2.795-2.823,4.469c-0.67,1.726-0.991,3.509-0.844,5.363c0.148,1.866,0.792,3.52,2.02,4.959
		c7.816,9.161,15.619,18.332,23.429,27.498c0.239,0.281,0.486,0.562,0.764,0.803c0.996,0.864,2.139,1.23,3.446,0.914
		c1.185-0.287,2.054-1.03,2.697-2.03c2.174-3.379,4.33-6.77,6.493-10.157c1.309-2.048,2.618-4.096,3.927-6.144
		c1.249-1.955,2.518-3.898,3.74-5.87C668.561,54.955,668.815,53.152,668.525,51.268z"/>
	<path class="st2" d="M144.138,56.181c-8.903-5.717-17.79-11.458-26.682-17.19c-0.08-0.052-0.16-0.103-0.258-0.167
		c0.051-0.035,0.074-0.053,0.099-0.067c0.882-0.494,1.596-1.184,2.236-1.951c1.096-1.314,1.929-2.789,2.552-4.377
		c1.425-3.63,1.723-7.333,0.595-11.095c-0.693-2.313-1.91-4.295-3.895-5.741c-1.326-0.966-2.807-1.502-4.456-1.526
		c-2.12-0.03-3.971,0.73-5.636,1.985c-2.067,1.557-3.513,3.601-4.573,5.934c-0.785,1.728-1.278,3.538-1.442,5.431
		c-0.221,2.557,0.122,5.023,1.23,7.357c0.88,1.854,2.164,3.353,3.902,4.47c7.682,4.941,15.355,9.896,23.033,14.843
		c0.693,0.446,1.179,1.046,1.428,1.83c0.312,0.98,0.344,1.982,0.09,2.971c-0.416,1.617-0.879,3.221-1.323,4.83
		c-2.026,7.353-4.052,14.706-6.078,22.059c-0.162,0.587-0.333,1.167-0.687,1.678c-0.517,0.748-1.229,0.987-2.065,0.658
		c-0.238-0.094-0.463-0.23-0.68-0.37c-6.098-3.928-12.194-7.859-18.291-11.79c-0.069-0.044-0.138-0.089-0.218-0.141
		c0.036-0.042,0.043-0.056,0.056-0.064c1.551-0.969,2.738-2.301,3.743-3.804c0.93-1.392,1.648-2.891,2.14-4.492
		c0.926-3.018,1.083-6.063,0.236-9.124c-0.678-2.448-1.918-4.539-4.032-6.034c-1.279-0.904-2.702-1.41-4.273-1.458
		c-2.183-0.067-4.099,0.687-5.836,1.951c-1.999,1.455-3.45,3.366-4.544,5.562c-0.986,1.979-1.571,4.073-1.743,6.281
		c-0.177,2.277,0.078,4.496,0.911,6.632c0.838,2.15,2.188,3.874,4.149,5.136c6.299,4.053,12.592,8.113,18.887,12.171h29.193
		c0.487-1.724,0.977-3.446,1.465-5.169c0.816-2.884,1.634-5.768,2.451-8.652c0.779-2.753,1.586-5.499,2.328-8.262
		c0.615-2.293,0.272-4.512-0.74-6.634C146.679,58.315,145.585,57.11,144.138,56.181z"/>
	<path class="st2" d="M52.956,15.226c-0.045-0.076-0.091-0.151-0.146-0.244c0.056-0.007,0.081-0.013,0.107-0.013
		c0.914-0.034,1.767-0.298,2.59-0.656c1.409-0.614,2.665-1.468,3.794-2.503c2.581-2.364,4.268-5.26,4.813-8.801
		c0.156-1.016,0.185-2.021,0.07-3.009H45.161c-1.038,1.882-1.638,3.906-1.642,6.117c-0.003,1.88,0.463,3.64,1.449,5.279
		c4.357,7.245,8.701,14.497,13.052,21.745c0.393,0.654,0.557,1.347,0.455,2.09c-0.127,0.93-0.492,1.762-1.085,2.462
		c-0.97,1.145-1.975,2.259-2.965,3.386c-4.524,5.15-9.048,10.3-13.571,15.451c-0.361,0.411-0.728,0.813-1.216,1.082
		c-0.715,0.394-1.391,0.291-1.945-0.327c-0.158-0.177-0.289-0.382-0.412-0.586c-3.456-5.756-6.91-11.513-10.364-17.27
		c-0.039-0.065-0.078-0.13-0.123-0.206c0.046-0.019,0.057-0.028,0.07-0.029c1.647-0.142,3.136-0.731,4.544-1.537
		c1.304-0.746,2.475-1.668,3.501-2.769c1.934-2.074,3.25-4.493,3.75-7.344c0.4-2.281,0.201-4.505-0.945-6.609
		c-0.694-1.273-1.66-2.281-2.926-2.978c-1.759-0.968-3.621-1.155-5.534-0.85c-2.202,0.351-4.134,1.303-5.884,2.635
		c-1.578,1.202-2.873,2.666-3.874,4.395c-1.032,1.783-1.688,3.7-1.84,5.791c-0.153,2.105,0.279,4.076,1.391,5.926
		c7.081,11.78,14.147,23.569,21.221,35.353c0.217,0.361,0.442,0.724,0.708,1.048c0.953,1.163,2.154,1.804,3.651,1.718
		c1.357-0.078,2.442-0.726,3.322-1.708c2.973-3.315,5.928-6.646,8.891-9.971c1.792-2.011,3.585-4.021,5.377-6.032
		c1.711-1.92,3.441-3.822,5.125-5.766c1.397-1.613,1.982-3.566,1.981-5.721c-0.001-1.56-0.426-3.002-1.247-4.365
		C63.024,32.024,57.994,23.623,52.956,15.226z"/>
	<path class="st2" d="M550.878,13.448c1.176,1.124,2.502,2.035,3.989,2.703c2.008,0.902,4.102,1.322,6.304,1.085
		c1.75-0.188,3.326-0.805,4.722-1.896c6.172-4.821,12.354-9.632,18.53-14.449c0.557-0.435,1.181-0.659,1.885-0.639
		c0.882,0.025,1.703,0.282,2.431,0.768c1.191,0.794,2.359,1.623,3.536,2.437c5.38,3.72,10.759,7.439,16.139,11.159
		c0.43,0.297,0.851,0.6,1.164,1.03c0.459,0.63,0.452,1.274-0.051,1.857c-0.144,0.167-0.318,0.31-0.492,0.446
		c-4.905,3.826-9.811,7.649-14.717,11.473c-0.056,0.043-0.111,0.086-0.175,0.137c-0.023-0.041-0.033-0.051-0.036-0.063
		c-0.346-1.53-1.089-2.867-2.021-4.106c-0.863-1.147-1.874-2.152-3.031-3.002c-2.181-1.603-4.603-2.592-7.319-2.771
		c-2.174-0.144-4.217,0.269-6.025,1.558c-1.094,0.779-1.906,1.789-2.389,3.046c-0.672,1.749-0.603,3.513-0.071,5.277
		c0.613,2.03,1.75,3.745,3.217,5.25c1.323,1.358,2.853,2.424,4.592,3.188c1.793,0.787,3.661,1.208,5.627,1.138
		c1.978-0.07,3.755-0.675,5.332-1.906c10.037-7.837,20.084-15.661,30.126-23.492c0.308-0.24,0.616-0.488,0.883-0.771
		c0.958-1.012,1.398-2.204,1.123-3.599c-0.249-1.265-0.994-2.217-2.021-2.942c-3.015-2.129-6.041-4.245-9.063-6.364h-35.083
		c-3.19,2.486-6.377,4.975-9.567,7.461c-0.064,0.05-0.129,0.101-0.208,0.162c-0.014-0.051-0.022-0.075-0.026-0.099
		c-0.15-0.854-0.507-1.627-0.947-2.362c-0.754-1.259-1.712-2.35-2.822-3.304c-0.842-0.724-1.731-1.34-2.659-1.858h-12.194
		c-1.004,0.769-1.764,1.735-2.206,2.944c-0.624,1.707-0.532,3.421,0.013,5.124C548.043,10.181,549.289,11.93,550.878,13.448z"/>
	<path class="st2" d="M595.174,67.023c-1.123-2.531-2.244-5.063-3.366-7.595c-1.071-2.417-2.119-4.844-3.223-7.245
		c-0.917-1.993-2.47-3.367-4.442-4.277c-1.428-0.659-2.918-0.869-4.494-0.675c-9.701,1.193-19.405,2.359-29.108,3.535
		c-0.087,0.011-0.175,0.021-0.282,0.034c0.016-0.055,0.021-0.082,0.031-0.106c0.335-0.872,0.435-1.784,0.437-2.707
		c0.003-1.581-0.276-3.121-0.77-4.617c-1.13-3.42-3.104-6.228-6.127-8.235c-1.858-1.234-3.893-1.924-6.157-1.78
		c-1.513,0.096-2.882,0.589-4.067,1.545c-1.524,1.23-2.39,2.863-2.833,4.738c-0.55,2.326-0.371,4.633,0.253,6.916
		c0.462,1.69,1.18,3.269,2.182,4.71c1.352,1.947,3.052,3.498,5.217,4.502c1.72,0.798,3.517,1.104,5.412,0.873
		c8.376-1.023,16.753-2.032,25.129-3.05c0.756-0.092,1.456,0.048,2.095,0.457c0.8,0.513,1.415,1.206,1.818,2.059
		c0.659,1.394,1.276,2.808,1.911,4.213c2.901,6.421,5.802,12.842,8.703,19.263c0.232,0.513,0.452,1.027,0.503,1.598
		c0.074,0.837-0.291,1.427-1.079,1.687c-0.225,0.074-0.465,0.109-0.702,0.138c-6.652,0.809-13.305,1.614-19.957,2.42
		c-0.075,0.009-0.15,0.018-0.238,0.029c0.001-0.051-0.002-0.066,0.002-0.078c0.53-1.604,0.587-3.251,0.414-4.913
		c-0.16-1.538-0.535-3.027-1.131-4.455c-1.124-2.691-2.81-4.948-5.218-6.623c-1.927-1.34-4.043-2.093-6.427-1.908
		c-1.443,0.112-2.752,0.593-3.897,1.486c-1.591,1.241-2.507,2.908-2.995,4.832c-0.561,2.214-0.464,4.429,0.054,6.634
		c0.468,1.988,1.288,3.822,2.469,5.492c0.703,0.993,1.508,1.873,2.409,2.649h30.595c6.132-0.743,12.263-1.488,18.395-2.232
		c0.417-0.051,0.839-0.109,1.243-0.221c1.447-0.403,2.514-1.258,3.035-2.699c0.472-1.306,0.314-2.598-0.232-3.838
		C598.894,75.388,597.029,71.208,595.174,67.023z"/>
	<path class="st2" d="M226.802,9.968c1.342,1.418,2.95,2.338,4.889,2.703c12.348,2.316,24.693,4.649,37.04,6.973
		c0.378,0.071,0.763,0.138,1.146,0.151c1.374,0.049,2.543-0.403,3.396-1.516c0.774-1.009,0.993-2.181,0.859-3.415
		c-0.45-4.168-0.921-8.334-1.383-12.5c-0.087-0.788-0.175-1.575-0.262-2.363h-14.602c0.397,3.365,0.794,6.73,1.192,10.095
		c0.06,0.512,0.111,1.021-0.003,1.534c-0.167,0.751-0.649,1.166-1.409,1.174c-0.217,0.002-0.436-0.033-0.651-0.074
		c-6.031-1.134-12.062-2.271-18.092-3.408c-0.068-0.013-0.136-0.025-0.216-0.041c0.015-0.044,0.016-0.058,0.023-0.067
		c0.906-1.254,1.412-2.676,1.721-4.174c0.286-1.387,0.37-2.791,0.245-4.203c-0.025-0.282-0.061-0.56-0.1-0.836h-17.272
		c-0.082,1.72,0.122,3.41,0.649,5.061C224.561,6.901,225.468,8.559,226.802,9.968z"/>
	<path class="st2" d="M442.444,76.256c-1.51-1.146-3.166-2.026-4.976-2.604c-2.444-0.779-4.924-0.989-7.444-0.425
		c-2.002,0.449-3.746,1.371-5.219,2.818c-4.252,4.178-8.51,8.35-12.767,12.523h7.761c1.042-1.021,2.082-2.043,3.124-3.065
		c0.068-0.066,0.136-0.133,0.219-0.215c0.023,0.058,0.035,0.083,0.043,0.111c0.287,0.969,0.802,1.817,1.408,2.61
		c0.148,0.194,0.311,0.374,0.468,0.559h22.648c0.068-0.204,0.149-0.399,0.2-0.613c0.497-2.06,0.164-4.032-0.691-5.932
		C446.158,79.666,444.485,77.804,442.444,76.256z"/>
	<path class="st2" d="M415.032,66.743c0.547-2.114,0.235-4.148-0.615-6.12c-0.977-2.27-2.52-4.106-4.419-5.656
		c-1.712-1.397-3.624-2.431-5.738-3.085c-2.181-0.675-4.4-0.915-6.666-0.575c-2.281,0.342-4.26,1.278-5.923,2.912
		c-10.589,10.4-21.192,20.787-31.788,31.181c-0.325,0.318-0.648,0.646-0.921,1.009c-0.512,0.682-0.847,1.402-0.982,2.161h29.022
		c-3.781-2.024-7.562-4.048-11.343-6.072c-0.537-0.287-1.065-0.583-1.484-1.04c-0.615-0.669-0.691-1.416-0.186-2.158
		c0.144-0.211,0.327-0.4,0.511-0.581c5.175-5.078,10.352-10.153,15.529-15.229c0.058-0.058,0.117-0.115,0.185-0.182
		c0.033,0.044,0.045,0.055,0.05,0.068c0.603,1.726,1.639,3.177,2.882,4.488c1.151,1.214,2.454,2.245,3.907,3.077
		c2.738,1.568,5.672,2.394,8.842,2.243c2.537-0.121,4.849-0.868,6.772-2.599C413.831,69.539,414.638,68.263,415.032,66.743z"/>
	<path class="st2" d="M435.983,3.096c0.598,0.495,1.184,0.998,1.593,1.675c0.599,0.992,0.506,1.945-0.314,2.745
		c-0.234,0.228-0.51,0.418-0.786,0.597c-7.754,5.039-15.51,10.074-23.266,15.11c-0.088,0.057-0.176,0.114-0.277,0.18
		c-0.03-0.063-0.043-0.08-0.045-0.098c-0.317-2.31-1.245-4.386-2.468-6.34c-1.132-1.809-2.5-3.427-4.105-4.835
		c-3.026-2.653-6.485-4.428-10.486-5.042c-3.201-0.491-6.281-0.141-9.124,1.536c-1.72,1.015-3.051,2.405-3.928,4.207
		c-1.219,2.504-1.343,5.126-0.78,7.806c0.647,3.084,2.112,5.771,4.093,8.189c1.786,2.181,3.916,3.956,6.393,5.309
		c2.555,1.395,5.269,2.257,8.188,2.405c2.938,0.149,5.648-0.52,8.141-2.142c15.869-10.323,31.752-20.625,47.628-30.938
		c0.487-0.316,0.974-0.644,1.407-1.028c0.806-0.717,1.405-1.526,1.767-2.432H432.24C433.488,1.032,434.735,2.064,435.983,3.096z"/>
</g>
</svg>
