<?xml version="1.0" encoding="utf-8"?>
<!-- Generator: Adobe Illustrator 23.0.4, SVG Export Plug-In . SVG Version: 6.00 Build 0)  -->
<svg version="1.1" id="Vrstva_1" xmlns="http://www.w3.org/2000/svg" xmlns:xlink="http://www.w3.org/1999/xlink" x="0px" y="0px"
	 viewBox="0 0 675.87 88.569" style="enable-background:new 0 0 675.87 88.569;" xml:space="preserve">
<style type="text/css">
	.st0{fill:#7EBA02;}
	.st1{fill-rule:evenodd;clip-rule:evenodd;fill:#648C04;}
	.st2{fill:#648C04;}
</style>
<g>
	<path class="st1" d="M621.137,72.188c-8.496-1.31-15.194-5.195-20.135-12.029c-5.533-7.654-6.059-17.477-4.31-22.93
		c-0.198,3.626,0.196,7.006,1.226,10.276c1.657,5.261,4.545,9.757,8.765,13.342c4.691,3.985,10.121,6.237,16.257,6.75
		c0.347,0.029,0.95-0.109,1.038-0.328c0.869-2.167,1.654-4.368,2.522-6.716c-8.991-0.921-16.076-4.653-21.336-11.619
		c-5.488-7.268-6.738-16.995-4.773-23.374c-0.585,19.248,14.847,29.931,26.401,30.116c0.112-3.649-0.559-7.169-1.72-10.601
		c-0.1-0.298-0.685-0.539-1.081-0.612c-3.632-0.67-7.04-1.918-10.176-3.872c-4.926-3.069-8.727-7.162-11.001-12.534
		c-0.985-2.327-1.699-4.769-2.563-7.234c-2.304,2.847-4.275,5.991-5.514,9.544c-4.358,12.491-2.472,23.942,5.955,34.182
		c4.348,5.284,9.981,8.703,16.53,10.617c0.388,0.113,1.01,0.175,1.236-0.04C619.372,74.254,620.176,73.264,621.137,72.188z"/>
	<path class="st1" d="M645.734,18.958c-0.393-0.198-0.646-0.337-0.907-0.456c-1.935-0.883-3.805-1.976-5.819-2.607
		c-11.836-3.71-23.72-0.062-31.447,9.633c-1.831,2.298-1.811,1.589,0.028,4.019c0.479,0.633,1.007,1.234,1.558,1.806
		c0.613,0.636,1.279,1.223,1.938,1.848c12.388-17.158,33.743-14.775,43.129-4.974c-14.975-9.35-31.847-3.4-39.221,7.755
		c0.297,0.214,0.58,0.465,0.902,0.643c2.684,1.48,5.526,2.521,8.529,3.157c0.856,0.181,1.348-0.019,1.943-0.684
		c7.663-8.574,17.154-11.708,28.423-9.384c1.133,0.234,2.235,0.617,3.663,1.018c-0.686-1.488-1.211-2.736-1.824-3.938
		c-3.391-6.654-8.507-11.601-15.18-14.864c-7.475-3.656-15.302-4.449-23.39-2.374c-5.868,1.505-10.992,4.338-15.317,8.59
		c-0.206,0.202-0.504,0.545-0.451,0.738c0.352,1.293,0.787,2.563,1.245,3.992C617.153,6.12,637.666,10.501,645.734,18.958z"/>
	<path class="st1" d="M646.598,69.862c6.123-4.479,10.285-10.405,12.47-17.648c1.811-6.005,1.957-12.096,0.31-18.186
		c-0.082-0.303-0.263-0.754-0.486-0.815c-1.214-0.333-2.456-0.565-3.825-0.862c7.202,18.489-4.351,35.039-18.331,38.791
		c0.342-0.189,0.54-0.29,0.729-0.405c0.227-0.139,0.436-0.308,0.668-0.434c5.279-2.861,9.237-7.038,11.821-12.406
		c3.962-8.23,3.876-16.574,0.173-24.895c-0.131-0.295-0.531-0.722-0.747-0.69c-2.333,0.345-4.654,0.77-7.15,1.203
		c3.743,8.245,4.04,16.266,0.611,24.288c-3.592,8.403-11.003,14.113-17.892,15.841c16.7-8.852,18.631-27.378,12.958-37.958
		c-3.14,1.701-5.78,3.881-8.088,6.489c-0.497,0.562-0.511,1.054-0.284,1.749c0.517,1.584,1.054,3.185,1.325,4.822
		c1.398,8.437-0.505,16.073-5.844,22.782c-1.235,1.552-2.678,2.939-4.07,4.451c0.395,0.062,0.765,0.132,1.138,0.176
		C631.066,77.218,639.275,75.218,646.598,69.862z"/>
</g>
<g>
	<path class="st1" d="M329.346,1.421c-0.917,4.943-0.516,9.797,1.347,14.488c2.07,5.214,5.478,9.351,10.197,12.389
		c0.267,0.172,0.811,0.319,0.976,0.18c1.626-1.373,3.2-2.808,4.903-4.327c-6.843-4.587-10.949-10.623-12.202-18.48
		c-0.306-1.919-0.359-3.847-0.219-5.73h-4.654C329.57,0.432,329.438,0.921,329.346,1.421z"/>
	<path class="st1" d="M349.089,20.35c1.651-2.889,2.617-6.009,3.151-9.269c0.046-0.283-0.321-0.727-0.608-0.956
		c-2.637-2.093-4.846-4.556-6.534-7.47c-0.516-0.891-0.965-1.798-1.376-2.715h-6.73C337.515,9.218,343.002,16.988,349.089,20.35z"/>
	<path class="st1" d="M324.285,16.324c1.239,6.113,4.31,11.274,8.763,15.618c0.264,0.257,0.738,0.573,1.012,0.497
		c1.11-0.31,2.18-0.762,3.414-1.217c-6.278-4.689-10.007-10.682-11.059-18.296c-0.646-4.674,0.202-9.223,1.712-12.985h-3.151
		C323.329,4.946,323.086,10.408,324.285,16.324z"/>
	<path class="st1" d="M382.904,9.989c-2.619-4.532-6.095-7.839-9.959-10.049h-24.699c0.067,0.143,0.137,0.283,0.222,0.414
		c1.527,2.339,3.37,4.394,5.514,6.19c0.612,0.513,1.093,0.562,1.856,0.281c9.836-3.623,18.816-2.084,26.892,4.606
		c0.812,0.673,1.535,1.453,2.513,2.387c0.085-1.491,0.196-2.72,0.217-3.95c0.06-3.479-0.441-6.789-1.469-9.929h-7.338
		C379.693,2.868,381.888,6.388,382.904,9.989z"/>
	<path class="st1" d="M358.962,40.243c6.845-0.985,12.73-3.974,17.587-8.869c4.027-4.059,6.75-8.898,8.03-14.505
		c0.064-0.279,0.111-0.719-0.043-0.864c-0.835-0.788-1.735-1.506-2.71-2.331c-2.113,17.963-18.493,26.341-31.351,23.38
		c0.357-0.006,0.559-0.002,0.76-0.014c0.242-0.015,0.483-0.061,0.724-0.063c5.473-0.044,10.446-1.713,14.822-4.928
		c6.71-4.929,10.211-11.682,10.79-19.963c0.021-0.294-0.119-0.808-0.306-0.875c-2.026-0.72-4.076-1.371-6.27-2.091
		c-0.515,8.237-3.707,14.821-9.9,19.81c-6.486,5.226-14.894,6.651-21.179,5.095c17.229,0.02,26.709-14.065,26.67-25.007
		c-3.255,0.026-6.312,0.651-9.286,1.763c-0.641,0.24-0.863,0.63-0.977,1.286c-0.261,1.496-0.514,3.014-0.997,4.448
		c-2.484,7.389-7.283,12.721-14.45,15.837c-1.658,0.721-3.413,1.22-5.18,1.841c0.292,0.219,0.559,0.433,0.841,0.629
		C343.313,39.519,350.776,41.42,358.962,40.243z"/>
</g>
<g>
	<path class="st1" d="M120.128,69.49c-2.145,3.553-3.561,7.176-4.276,11.029c-0.499,2.688-0.666,5.353-0.529,7.99h7.611
		c-0.206-0.87-0.391-1.753-0.536-2.662c-1.64-10.278,2.316-20.767,7.722-26.15c-5.868,10.274-5.733,20.53-2.561,28.812h12.983
		c-1.9-1.927-3.56-4.063-4.938-6.442c-3.325-5.74-4.966-11.91-4.379-18.552c0.255-2.877,0.843-5.725,1.294-8.676
		c-3.853,1.637-7.528,3.753-10.685,6.674c-8.328,7.705-12.794,16.706-13.233,26.996h3.405
		C112.641,80.33,116.394,73.124,120.128,69.49z"/>
	<path class="st1" d="M139.266,78.049c0.185,0.375,0.336,0.78,0.565,1.132c1.915,2.934,4.225,5.509,6.915,7.763
		c0.767,0.642,1.37,0.704,2.327,0.352c9.633-3.548,18.608-3.129,26.902,1.213h5.269C170.697,73.496,151.951,71.15,139.266,78.049z"
		/>
	<path class="st1" d="M178.869,67.967c-5.583-7.699-13.056-12.699-22.332-14.944c-6.729-1.628-13.42-1.519-20.066,0.453
		c-0.317,0.094-0.801,0.279-0.852,0.503c-0.338,1.493-0.58,3.008-0.885,4.697c22.732-9.605,41.085,5.82,44.691,18.684
		c-0.29-0.411-0.471-0.687-0.671-0.947c-1.479-1.929-2.78-4.036-4.474-5.753c-9.955-10.094-23.906-12.788-36.905-7.148
		c-3.081,1.336-2.68,0.633-2.128,4.072c0.144,0.896,0.354,1.786,0.603,2.658c0.277,0.971,0.634,1.92,0.964,2.904
		c20.363-10.011,39.465,1.569,45.231,15.364h4.124C185.814,80.999,183.341,74.134,178.869,67.967z"/>
</g>
<g>
	<path class="st2" d="M71.498,48.543c-3.458-3.603-7.151-10.146-9.503-15.173c3.045-6.766,5.992-12.449,9.003-17.361l18.127-0.589
		c3.662,5.364,7.304,12.578,9.21,16.533l-0.159,0.355c-2.305,5.132-5.168,11.505-8.495,15.067L71.498,48.543z"/>
	<path class="st2" d="M94.514,0.212c-0.19,1.946-0.449,3.934-0.789,6.068c-0.333,2.088-0.736,4.271-1.264,6.857
		c1.096,1.852,7.771,13.151,9.516,16.737c1.71,0.147,3.048,0.21,4.436,0.21c1.053,0,3.239-0.038,4.847-0.118
		c0.151-1.475,0.227-2.958,0.227-4.416c0-9.249-2.998-18.231-8.479-25.61H95.3L94.514,0.212z"/>
	<path class="st2" d="M41.569,0.385c-2.035,2.694-4.013,6.062-5.441,9.266c-1.416,3.178-2.303,6.161-2.638,8.868
		c1.043,2.285,2.302,4.633,3.743,6.98c1.302,2.122,2.791,4.303,4.429,6.485c0.63,0.021,1.26,0.047,1.906,0.073
		c1.722,0.068,3.503,0.14,5.332,0.14h0.001c3.33,0,6.299-0.247,9.325-0.776c3.094-6.855,6.103-12.643,9.193-17.682
		c-2.414-5.683-4.633-10.307-6.614-13.798H46.1C44.534,0.083,43.017,0.234,41.569,0.385z"/>
	<path class="st2" d="M71.089,11.913l17.752-0.576c0.626-2.478,1.571-8.683,1.84-11.397H65.454
		C67.683,3.997,69.304,7.693,71.089,11.913z"/>
	<path class="st2" d="M58.395,58.141c-5.909-2.121-11.273-4.639-15.768-6.843c-0.065-0.933-0.139-1.843-0.21-2.728l-0.005-0.069
		c-0.329-4.074-0.64-7.927-0.06-12.401c0.384,0.013,0.763,0.027,1.136,0.041c1.945,0.071,3.783,0.137,5.627,0.137
		c3.376,0,6.277-0.232,9.369-0.75c2.106,4.518,5.264,10.822,8.953,15.085c-0.697,0.564-1.396,1.123-2.079,1.667
		C63.053,54.122,60.673,56.022,58.395,58.141z"/>
	<path class="st2" d="M68.519,68.519c-1.276,0-2.58-0.059-3.88-0.176l-3.395-7.263c2.111-1.958,4.369-3.765,6.754-5.673l0.085-0.068
		c1.003-0.803,2.137-1.71,3.205-2.589l18.409-1.183c2.075,2.175,4.396,6.118,5.356,7.779C87.423,65.348,78.255,68.519,68.519,68.519
		z"/>
	<path class="st2" d="M34.829,52.218c-6.071-7.656-9.278-16.871-9.278-26.667c0-1.547,0.086-3.121,0.256-4.686l4.235,0.035
		c2.096,4.464,4.918,9.068,8.394,13.692c-0.832,5.4-0.46,9.924-0.101,14.3c0.058,0.709,0.118,1.436,0.172,2.166L34.829,52.218z"/>
	<path class="st2" d="M26.452,16.768l3.162,0.025c1.043-5.987,4.22-12.259,7.315-16.853h-2.894
		C30.32,4.928,27.724,10.643,26.452,16.768z"/>
	<path class="st2" d="M59.63,67.595c-8.297-1.743-15.796-5.854-21.766-11.936l2.631-0.85c5.771,2.838,10.822,5.157,16.606,7.215
		L59.63,67.595z"/>
	<path class="st2" d="M98.199,56.617c-1.294-2.21-3.109-5.151-4.935-7.218c3.763-4.816,6.369-10.458,8.667-15.48
		c0.98,0.095,2.001,0.141,3.112,0.141c1.398,0,3.815-0.076,5.635-0.174C108.965,42.604,104.661,50.445,98.199,56.617z"/>
</g>
<g>
	<path class="st2" d="M222.624,57.122c-2.723-2.578-5.729-7.353-7.674-11.039c2.04-5.185,4.047-9.553,6.129-13.346l13.576-1.094
		c2.94,3.892,5.931,9.172,7.502,12.07l-0.107,0.272c-1.545,3.932-3.463,8.815-5.83,11.607L222.624,57.122z"/>
	<path class="st2" d="M236.729,17.059c-1.838-1.25-3.781-2.407-5.781-3.44c-2.115-1.093-4.37-2.088-6.705-2.959l-1.202-2.756
		c6.485,0.694,12.513,3.298,17.49,7.559L236.729,17.059z"/>
	<path class="st2" d="M248.149,42.021c-1.041,0.05-2.047,0.051-3.335,0.002c-1.438-2.627-6.851-10.863-7.739-12.212
		c0.303-1.959,0.527-3.611,0.702-5.189c0.179-1.613,0.301-3.114,0.374-4.58l5.053-2.017c5.176,5.567,8.224,12.808,8.589,20.413
		c0.052,1.093,0.048,2.209-0.012,3.32C250.577,41.876,248.939,41.983,248.149,42.021z"/>
	<path class="st2" d="M205.087,45.673c-1.371,0.066-2.71,0.076-4.004,0.087c-0.486,0.004-0.958,0.008-1.432,0.014
		c-1.307-1.578-2.502-3.16-3.555-4.705c-1.166-1.709-2.194-3.424-3.059-5.101c0.153-2.043,0.712-4.312,1.659-6.747
		c0.955-2.454,2.318-5.051,3.748-7.145c4.155-0.637,9.058-1.316,14.03-1.554l0.047-0.002c1.69,2.597,3.638,6.176,5.793,10.643
		c-2.136,3.89-4.185,8.34-6.259,13.593C209.804,45.262,207.586,45.553,205.087,45.673L205.087,45.673z"/>
	<path class="st2" d="M221.001,29.662c-1.743-3.627-3.287-6.721-5.621-10.306c2.456-2.047,4.777-3.935,7.907-6.093
		c4.124,1.562,7.728,3.461,11.997,6.32c-0.052,1.761-0.58,6.994-0.987,9.008L221.001,29.662z"/>
	<path class="st2" d="M213.142,64.792c-4.508-1.378-8.622-3.074-12.073-4.566c-0.083-0.697-0.17-1.377-0.256-2.039l-0.007-0.052
		c-0.393-3.044-0.765-5.923-0.491-9.3c0.289-0.004,0.573-0.007,0.854-0.01c1.462-0.017,2.842-0.033,4.225-0.099
		c2.532-0.121,4.7-0.399,7.001-0.899c1.742,3.313,4.338,7.928,7.258,10.993c-0.503,0.448-1.007,0.892-1.499,1.325
		C216.491,61.61,214.774,63.121,213.142,64.792z"/>
	<path class="st2" d="M198.472,18.927c-0.061-0.118-0.121-0.23-0.18-0.34l-0.93-2.016c5.602-5.317,12.929-8.446,20.656-8.817
		c0.499-0.024,1.01-0.036,1.522-0.037l1.54,3.448c-2.614,1.831-4.999,3.735-7.521,5.747l-0.612,0.488
		c-0.269,0.01-0.537,0.022-0.804,0.035c-0.939,0.045-1.904,0.106-2.868,0.181C205.323,17.925,201.448,18.474,198.472,18.927z"/>
	<path class="st2" d="M221.108,72.212c-0.957,0.046-1.937,0.049-2.916,0.008l-2.808-5.326c1.513-1.545,3.142-2.981,4.862-4.498
		l0.061-0.054c0.723-0.638,1.541-1.359,2.311-2.057l13.765-1.549c1.634,1.557,3.518,4.431,4.297,5.642
		C235.174,69.154,228.411,71.862,221.108,72.212z"/>
	<path class="st2" d="M195.252,61.197c-4.829-5.524-7.566-12.321-7.918-19.669c-0.056-1.16-0.048-2.344,0.024-3.524l3.178-0.126
		c1.732,3.273,4.015,6.625,6.788,9.968c-0.43,4.08,0.011,7.46,0.438,10.73c0.069,0.53,0.14,1.073,0.207,1.618L195.252,61.197z"/>
	<path class="st2" d="M187.694,34.908c0.946-5.985,3.551-11.547,7.555-16.135l0.701,1.566c-2.447,3.612-5.229,9.239-5.884,14.473
		L187.694,34.908z"/>
	<path class="st2" d="M214.408,71.839c-6.286-1.009-12.059-3.823-16.755-8.17l1.943-0.732c4.431,1.921,8.303,3.479,12.715,4.814
		L214.408,71.839z"/>
	<path class="st2" d="M242.942,62.218c-1.05-1.611-2.517-3.752-3.961-5.237c2.649-3.748,4.402-8.073,5.944-11.923
		c0.738,0.036,1.506,0.034,2.339-0.006c1.049-0.05,2.859-0.194,4.22-0.333C250.514,51.32,247.568,57.356,242.942,62.218z"/>
</g>
<g>
	<path class="st2" d="M314.386,81.111c-3.564-1.136-8.332-4.125-11.676-6.595c-0.413-5.542-0.502-10.336-0.274-14.646l11.724-6.863
		c4.327,2.223,9.302,5.672,11.969,7.595l0.022,0.29c0.315,4.202,0.707,9.42-0.211,12.954L314.386,81.111z"/>
	<path class="st2" d="M309.705,39.005c-2.193-0.327-4.44-0.525-6.684-0.587c-2.373-0.066-4.83,0.016-7.306,0.245l-2.273-1.956
		c6.127-2.186,12.671-2.456,18.989-0.784L309.705,39.005z"/>
	<path class="st2" d="M330.779,56.486c-0.914,0.496-1.817,0.932-2.996,1.446c-2.43-1.737-10.86-6.792-12.243-7.62
		c-0.576-1.892-1.091-3.473-1.617-4.966c-0.538-1.527-1.078-2.928-1.648-4.277l3.666-4.001c7.062,2.76,12.937,7.946,16.559,14.621
		c0.521,0.96,1,1.964,1.428,2.988C332.897,55.305,331.472,56.11,330.779,56.486z"/>
	<path class="st2" d="M293.67,78.42c-1.204,0.653-2.402,1.242-3.56,1.812c-0.435,0.214-0.858,0.422-1.281,0.633
		c-1.858-0.852-3.617-1.756-5.232-2.688c-1.787-1.03-3.455-2.126-4.958-3.258c-0.747-1.902-1.228-4.182-1.431-6.781
		c-0.205-2.619-0.105-5.542,0.272-8.043c3.457-2.372,7.569-5.106,11.932-7.473l0.041-0.022c2.643,1.602,5.944,3.973,9.815,7.053
		c-0.235,4.421-0.148,9.306,0.264,14.924C297.73,76.007,295.863,77.231,293.67,78.42L293.67,78.42z"/>
	<path class="st2" d="M301.032,57.141c-3.137-2.504-5.865-4.615-9.515-6.825c1.32-2.903,2.587-5.604,4.465-8.899
		c4.381-0.383,8.443-0.238,13.517,0.482c0.716,1.605,2.509,6.536,3.015,8.521L301.032,57.141z"/>
	<path class="st2" d="M311.679,85.764c0.255-0.603,0.515-1.22,0.773-1.84c-3.951-1.489-8.282-4.511-11.282-6.733
		c-1.851,1.446-3.678,2.634-5.9,3.84c-1.214,0.659-2.448,1.271-3.753,1.919c-0.251,0.125-0.505,0.251-0.763,0.379
		c0.746,1.934,1.63,3.593,2.587,5.18h17.2C310.916,87.581,311.299,86.663,311.679,85.764z"/>
	<path class="st2" d="M276.141,57.255c-0.106-0.079-0.208-0.155-0.309-0.228l-1.709-1.409c2.731-7.204,7.958-13.189,14.74-16.869
		c0.438-0.238,0.892-0.47,1.351-0.692l2.877,2.431c-1.556,2.777-2.874,5.521-4.268,8.422l-0.339,0.703
		c-0.237,0.126-0.473,0.253-0.707,0.38c-0.824,0.447-1.665,0.92-2.498,1.405C281.862,53.387,278.618,55.559,276.141,57.255z"/>
	<path class="st2" d="M333.752,79.809c-1.225-0.751-4.162-2.518-6.305-3.208l-11.697,7.354c-0.389,0.96-0.812,1.963-1.185,2.85
		l-0.032,0.075c-0.234,0.555-0.45,1.088-0.676,1.63h14.339C330.48,85.958,332.358,83.041,333.752,79.809z"/>
	<path class="st2" d="M287.636,83.735c-3.94-1.802-7.443-3.825-10.417-6.016l-2.801,1.49c0.447,1.091,0.953,2.158,1.505,3.177
		c1.214,2.237,2.67,4.276,4.318,6.123h9.562C289.015,87.071,288.273,85.513,287.636,83.735z"/>
	<path class="st2" d="M273.379,76.282c-1.742-5.787-1.811-11.913-0.201-17.769l1.308,1.103c-0.634,4.305-0.696,10.566,0.982,15.553
		L273.379,76.282z"/>
	<path class="st2" d="M334.848,76.888c-1.641-0.993-3.887-2.281-5.827-2.99c0.757-4.515,0.458-9.16,0.176-13.287
		c0.679-0.288,1.368-0.622,2.099-1.019c0.92-0.499,2.484-1.413,3.648-2.127C336.931,63.817,336.898,70.516,334.848,76.888z"/>
</g>
<g>
	<path class="st2" d="M428.259,67.096c-3.352-1.069-7.837-3.88-10.982-6.202c-0.388-5.212-0.472-9.721-0.258-13.774l11.026-6.455
		c4.07,2.091,8.748,5.334,11.257,7.143l0.02,0.273c0.297,3.952,0.665,8.86-0.198,12.183L428.259,67.096z"/>
	<path class="st2" d="M423.856,27.495c-2.062-0.308-4.176-0.494-6.286-0.552c-2.232-0.062-4.543,0.016-6.871,0.231l-2.138-1.839
		c5.763-2.056,11.917-2.31,17.859-0.737L423.856,27.495z"/>
	<path class="st2" d="M443.676,43.937c-0.86,0.466-1.709,0.877-2.818,1.36c-2.285-1.634-10.214-6.388-11.515-7.166
		c-0.542-1.779-1.026-3.266-1.521-4.671c-0.506-1.436-1.014-2.754-1.55-4.023l3.448-3.763c6.642,2.596,12.168,7.473,15.574,13.751
		c0.49,0.902,0.941,1.847,1.343,2.81C445.669,42.826,444.328,43.583,443.676,43.937z"/>
	<path class="st2" d="M408.775,64.566c-1.132,0.614-2.259,1.169-3.348,1.705c-0.409,0.201-0.807,0.397-1.204,0.595
		c-1.747-0.801-3.402-1.651-4.921-2.528c-1.681-0.969-3.249-2-4.663-3.064c-0.702-1.789-1.155-3.934-1.346-6.377
		c-0.193-2.463-0.099-5.213,0.256-7.565c3.251-2.231,7.118-4.802,11.223-7.029l0.039-0.021c2.486,1.506,5.59,3.737,9.231,6.633
		c-0.221,4.158-0.139,8.753,0.248,14.036C412.593,62.297,410.838,63.447,408.775,64.566L408.775,64.566z"/>
	<path class="st2" d="M415.7,44.553c-2.951-2.355-5.516-4.34-8.949-6.419c1.242-2.731,2.433-5.271,4.199-8.37
		c4.121-0.36,7.941-0.224,12.712,0.454c0.674,1.509,2.36,6.147,2.836,8.014L415.7,44.553z"/>
	<path class="st2" d="M423.37,77.441c-4.371,0.672-8.538,0.915-12.062,1.06c-0.354-0.556-0.705-1.094-1.047-1.619l-0.027-0.041
		c-1.572-2.412-3.059-4.693-4.203-7.659c0.242-0.121,0.481-0.239,0.717-0.356c1.228-0.61,2.388-1.186,3.53-1.805
		c2.09-1.134,3.809-2.252,5.549-3.612c2.822,2.09,6.895,4.932,10.611,6.333c-0.242,0.584-0.487,1.164-0.727,1.731
		C424.904,73.387,424.069,75.364,423.37,77.441z"/>
	<path class="st2" d="M392.289,44.66c-0.1-0.074-0.196-0.145-0.291-0.214l-1.607-1.325c2.568-6.776,7.485-12.405,13.863-15.865
		c0.412-0.224,0.839-0.442,1.271-0.651l2.706,2.286c-1.463,2.612-2.703,5.193-4.014,7.921l-0.318,0.662
		c-0.223,0.119-0.445,0.238-0.665,0.357c-0.775,0.421-1.566,0.865-2.35,1.322C397.67,41.022,394.619,43.064,392.289,44.66z"/>
	<path class="st2" d="M433.125,80.466c-0.79,0.429-1.617,0.83-2.461,1.195l-4.542-3.357c0.649-1.922,1.44-3.799,2.276-5.782
		l0.03-0.071c0.351-0.834,0.749-1.776,1.115-2.68l11.001-6.917c2.015,0.65,4.777,2.311,5.93,3.017
		C443.765,72.151,439.154,77.195,433.125,80.466z"/>
	<path class="st2" d="M406.788,81.691c-6.331-2.701-11.413-7.329-14.704-13.395c-0.52-0.958-0.995-1.962-1.416-2.988l2.634-1.401
		c2.797,2.06,6.092,3.962,9.797,5.658c1.299,3.623,3.049,6.299,4.742,8.888c0.275,0.42,0.555,0.849,0.834,1.283L406.788,81.691z"/>
	<path class="st2" d="M389.692,62.555c-1.638-5.443-1.703-11.205-0.189-16.712l1.23,1.038c-0.597,4.049-0.655,9.937,0.924,14.628
		L389.692,62.555z"/>
	<path class="st2" d="M427.311,82.88c-5.723,1.708-11.747,1.682-17.487-0.078l1.343-1.41c4.527-0.182,8.433-0.443,12.706-1.112
		L427.311,82.88z"/>
	<path class="st2" d="M447.504,63.125c-1.544-0.934-3.656-2.145-5.481-2.812c0.712-4.246,0.43-8.615,0.166-12.497
		c0.638-0.271,1.286-0.585,1.974-0.958c0.866-0.47,2.337-1.329,3.431-2.001C449.463,50.832,449.432,57.132,447.504,63.125z"/>
</g>
<g>
	<path class="st2" d="M478.71,8.004c4.218,2.291,10.148,4.95,14.405,5.681l12.056-10.149c0.127-1.097,0.129-2.314,0.05-3.595
		h-28.054C477.586,2.484,478.096,5.157,478.71,8.004z"/>
	<path class="st2" d="M448.528,4.776c0.646,2.939,1.561,5.471,2.718,7.527c1.899,1.055,3.981,2.042,6.189,2.936
		c1.996,0.809,4.152,1.562,6.412,2.24c0.45-0.309,0.901-0.614,1.364-0.928c1.234-0.836,2.51-1.702,3.783-2.64l0.001,0
		c2.318-1.71,4.258-3.407,6.092-5.329c-0.656-3.051-1.196-5.917-1.631-8.641H447.77C447.935,1.582,448.188,3.232,448.528,4.776z"/>
	<path class="st2" d="M488.924,27.094c-5.201,1.558-10.228,2.559-14.488,3.333c-0.525-0.616-1.043-1.211-1.547-1.791l-0.039-0.045
		c-2.321-2.666-4.516-5.189-6.409-8.601c0.274-0.188,0.545-0.373,0.812-0.555c1.39-0.95,2.703-1.847,3.987-2.794
		c2.35-1.733,4.25-3.384,6.136-5.333c3.786,2.063,9.221,4.829,13.977,5.903c-0.195,0.751-0.395,1.498-0.591,2.228
		C490.102,21.904,489.421,24.449,488.924,27.094z"/>
	<path class="st2" d="M501.299,29.119c-0.888,0.655-1.826,1.284-2.791,1.87l-6.093-3.312c0.464-2.447,1.108-4.863,1.788-7.417
		l0.024-0.091c0.286-1.074,0.609-2.287,0.902-3.448l12.206-10.275c2.561,0.449,6.201,2.001,7.722,2.664
		C512.829,17.205,508.076,24.119,501.299,29.119z"/>
	<path class="st2" d="M469.48,35.071c-8.157-2.212-15.121-6.979-20.151-13.797c-0.794-1.077-1.543-2.217-2.228-3.393l2.966-2.151
		c3.751,2.031,8.079,3.786,12.873,5.22c2.194,4.186,4.775,7.144,7.272,10.005c0.405,0.464,0.819,0.939,1.232,1.419L469.48,35.071z"
		/>
	<path class="st2" d="M445.447,14.699l2.213-1.606c-1.98-3.965-3.001-8.847-3.398-13.152h-2.177
		C442.178,5.029,443.306,10.041,445.447,14.699z"/>
	<path class="st2" d="M494.638,33.04c-6.67,3.047-14.001,4.036-21.279,2.868l1.395-1.942c5.474-0.988,10.18-1.968,15.263-3.505
		L494.638,33.04z"/>
	<path class="st2" d="M508.705,3.104c2.332,0.501,5.106,1.616,7.141,2.491c0.329-1.886,0.511-3.774,0.553-5.654h-7.754
		C508.703,0.992,508.734,2.047,508.705,3.104z"/>
</g>
<g>
	<path class="st2" d="M553.548,85.599c-4.06-1.474-9.426-5.141-13.171-8.143c-0.222-6.414-0.107-11.949,0.354-16.912l13.841-7.383
		c4.891,2.763,10.473,6.97,13.463,9.311l0.012,0.336c0.172,4.863,0.385,10.902-0.836,14.937L553.548,85.599z"/>
	<path class="st2" d="M550.073,36.801c-2.515-0.478-5.099-0.809-7.686-0.983c-2.735-0.185-5.574-0.202-8.441-0.051l-2.534-2.361
		c7.17-2.242,14.733-2.255,21.946-0.036L550.073,36.801z"/>
	<path class="st2" d="M573.589,57.936c-1.077,0.53-2.14,0.993-3.523,1.532c-2.724-2.116-12.221-8.334-13.778-9.352
		c-0.578-2.209-1.1-4.057-1.639-5.804c-0.551-1.786-1.11-3.428-1.706-5.01l4.413-4.449c8.022,3.508,14.564,9.76,18.438,17.628
		c0.557,1.131,1.064,2.312,1.511,3.513C576.088,56.669,574.407,57.534,573.589,57.936z"/>
	<path class="st2" d="M529.768,81.547c-1.419,0.698-2.828,1.324-4.191,1.928c-0.511,0.227-1.009,0.448-1.507,0.672
		c-2.104-1.068-4.093-2.191-5.914-3.34c-2.015-1.271-3.889-2.611-5.572-3.986c-0.775-2.228-1.226-4.882-1.342-7.89
		c-0.116-3.031,0.132-6.4,0.682-9.268c4.098-2.579,8.967-5.545,14.11-8.077l0.049-0.024c2.977,1.969,6.677,4.856,11.003,8.587
		c-0.473,5.09-0.596,10.731-0.378,17.232C534.563,78.949,532.353,80.275,529.768,81.547L529.768,81.547z"/>
	<path class="st2" d="M539.237,57.331c-3.505-3.033-6.556-5.593-10.667-8.31c1.656-3.29,3.242-6.348,5.559-10.064
		c5.073-0.241,9.753,0.112,15.574,1.175c0.753,1.884,2.596,7.656,3.089,9.97L539.237,57.331z"/>
	<path class="st2" d="M538.478,80.471c-2.202,1.583-4.364,2.871-6.984,4.161c-1.431,0.705-2.882,1.355-4.419,2.043
		c-0.295,0.132-0.594,0.267-0.897,0.403c0.168,0.491,0.344,0.966,0.527,1.431h23.953C546.317,86.555,541.707,83.067,538.478,80.471z
		"/>
	<path class="st2" d="M510.51,56.324c-0.119-0.096-0.233-0.188-0.347-0.277l-1.908-1.704c3.48-8.188,9.786-14.854,17.78-18.79
		c0.516-0.254,1.051-0.502,1.591-0.737l3.208,2.936c-1.922,3.133-3.569,6.239-5.31,9.522l-0.423,0.796
		c-0.28,0.135-0.557,0.27-0.833,0.406c-0.972,0.478-1.963,0.986-2.947,1.507C517.288,52.122,513.446,54.479,510.51,56.324z"/>
	<path class="st2" d="M575.954,84.982c-1.38-0.922-4.687-3.095-7.128-3.99l-13.079,7.517h18.251
		C574.7,87.372,575.367,86.207,575.954,84.982z"/>
	<path class="st2" d="M522.562,87.403c-4.464-2.26-8.413-4.754-11.745-7.417l-3.3,1.591c0.466,1.279,1.001,2.534,1.592,3.734
		c0.545,1.106,1.151,2.165,1.789,3.198h12.04C522.812,88.145,522.682,87.784,522.562,87.403z"/>
	<path class="st2" d="M506.454,78.152c-1.745-6.757-1.545-13.829,0.581-20.513l1.459,1.333c-0.929,4.939-1.287,12.16,0.422,17.991
		L506.454,78.152z"/>
	<path class="st2" d="M577.352,81.663c-1.848-1.221-4.381-2.809-6.587-3.716c1.08-5.175,0.947-10.549,0.811-15.323
		c0.796-0.301,1.606-0.655,2.468-1.08c1.085-0.534,2.931-1.516,4.306-2.288C580.353,66.676,580.009,74.404,577.352,81.663z"/>
</g>
</svg>
