<?xml version="1.0" encoding="utf-8"?>
<!-- Generator: Adobe Illustrator 23.0.4, SVG Export Plug-In . SVG Version: 6.00 Build 0)  -->
<svg version="1.1" id="Vrstva_1" xmlns="http://www.w3.org/2000/svg" xmlns:xlink="http://www.w3.org/1999/xlink" x="0px" y="0px"
	 viewBox="0 0 675.87 88.569" style="enable-background:new 0 0 675.87 88.569;" xml:space="preserve">
<style type="text/css">
	.st0{fill:#7EBA02;}
	.st1{fill-rule:evenodd;clip-rule:evenodd;fill:#648C04;}
	.st2{fill:#648C04;}
</style>
<g>
	<path class="st2" d="M452.851,35.905l-13.783,1.617l-3.927,13.171l-24.331,2.854l-6.868-11.905l-13.783,1.617l26.219,45.309h20.7
		L452.851,35.905z M426.248,80.358l-9.204-16.008l14.532-1.705L426.248,80.358z"/>
	<path class="st2" d="M264.743,59.773l7.625-11.72l-13.815-20.744L244.8,29.826l-7.826-11.751l63.722-11.577l7.12,10.691
		l-35.247,54.334L264.743,59.773z M289.553,21.686l-18.519,3.341l8.251,12.39L289.553,21.686z"/>
	<path class="st2" d="M666.484,31.941l-12.617-0.751l-7.662-21.186l9.218-8.648L654.932,0h-15.168l-31.325,29.467l3.949,10.919
		l58.437,3.556L666.484,31.941z M625.44,29.452l12.402-11.6l4.576,12.654L625.44,29.452z"/>
	<path class="st2" d="M138.123,84.449c7.519-4.59,11.756-9.506,12.714-14.752c0.824-4.517,0.073-8.683-2.255-12.495
		c-2.104-3.446-4.869-5.717-8.299-6.814c-3.428-1.095-7.065-0.972-10.906,0.368c0.687-0.992,1.156-1.69,1.41-2.097
		c0.253-0.404,0.628-1.26,1.12-2.566c1.493-3.777,0.932-7.808-1.682-12.09c-2.168-3.551-5.341-5.987-9.517-7.309
		c-2.283-0.684-5.038-0.649-8.27,0.104c-3.232,0.754-6.702,2.263-10.409,4.527L80.722,44.333l27.01,44.236h23.643L138.123,84.449z
		 M106.478,59.038L99.256,47.21l5.874-3.587c3.602-2.199,6.399-3.37,8.393-3.511c1.993-0.142,3.732,1.001,5.214,3.43
		c1.482,2.427,1.623,4.511,0.424,6.245c-1.197,1.736-3.496,3.641-6.888,5.712L106.478,59.038z M112.361,68.672l7.205-4.399
		c4.074-2.487,7.282-3.89,9.633-4.214c2.346-0.32,4.294,0.783,5.84,3.316c1.547,2.533,1.707,4.763,0.486,6.693
		c-1.224,1.93-3.586,3.963-7.084,6.099l-8.38,5.117L112.361,68.672z"/>
	<path class="st2" d="M480.549,6.477c-0.661,4.67-2.682,8.17-6.067,10.501c-3.383,2.33-7.181,3.198-11.398,2.601
		c-5.268-0.746-9.362-3.573-12.285-8.481l-8.087,6.917c4.669,7.061,11.122,11.175,19.36,12.341
		c7.376,1.044,13.968-0.564,19.775-4.823c5.806-4.26,9.235-10.114,10.29-17.562c0.394-2.787,0.413-5.443,0.056-7.97H480.38
		C480.824,1.978,480.881,4.136,480.549,6.477z"/>
	<path class="st2" d="M246.761,80.171c2.943-7.297,2.761-14.969-0.546-23.017c-3.307-8.047-9.517-13.664-18.632-16.851
		l-4.628,10.638c6.031,1.775,10.223,5.529,12.577,11.258c1.72,4.187,1.715,8.352-0.018,12.501c-1.731,4.148-5.026,7.221-9.885,9.217
		c-4.859,1.997-9.359,2.027-13.506,0.089c-4.144-1.937-7.119-5.097-8.921-9.483c-2.252-5.48-1.843-11.007,1.225-16.58l-11.201-3.871
		c-4.152,8.464-4.468,16.98-0.946,25.551c1.415,3.442,3.277,6.407,5.539,8.945h43.648C243.685,86.158,245.469,83.375,246.761,80.171
		z"/>
	<path class="st2" d="M309.019,84.334c-2.606-3.407-3.628-7.22-3.065-11.444c0.561-4.223,2.82-7.846,6.773-10.871
		c3.954-3.024,8.064-4.162,12.337-3.411c4.269,0.751,7.77,2.909,10.501,6.479c3.412,4.46,4.399,9.618,2.966,15.474l11.204,0.781
		c1.713-8.769-0.097-16.64-5.432-23.614c-4.777-6.245-10.927-9.914-18.448-11.007c-7.521-1.092-14.435,0.774-20.74,5.598
		c-6.305,4.823-9.907,10.935-10.801,18.337c-0.758,6.278,0.615,12.248,4.103,17.912h15.043
		C311.819,87.464,310.336,86.055,309.019,84.334z"/>
	<path class="st2" d="M146.021,4.205l-13.62,14.829l41.963,38.542l13.179-14.349c7.351-8.004,10.918-15.703,10.7-23.097
		c-0.218-7.394-3.587-14.087-10.111-20.08c-0.019-0.017-0.038-0.033-0.057-0.05h-37.747C148.883,1.257,147.447,2.653,146.021,4.205z
		 M167.028,4.41c4.335-0.261,8.564,1.502,12.686,5.288s6.207,7.822,6.254,12.108c0.047,4.286-1.895,8.57-5.827,12.852l-5.458,5.942
		l-25.514-23.434l4.797-5.223C158.339,7.182,162.693,4.671,167.028,4.41z"/>
	<path class="st2" d="M549.578,6.605c5.956-0.619,11.63,1.46,17.016,6.242c5.387,4.782,8.218,10.177,8.497,16.186
		c0.279,6.009-2.515,12.317-8.381,18.926l-10.517,11.847l-34.648-30.758l10.869-12.244C537.899,10.626,543.621,7.226,549.578,6.605z
		 M565.134,30.564c-0.097-3.484-1.848-6.737-5.251-9.758c-3.403-3.021-6.866-4.396-10.387-4.124
		c-3.521,0.272-7.027,2.374-10.517,6.305l-3.828,4.312L556.218,46l4.356-4.906C563.712,37.559,565.232,34.049,565.134,30.564z"/>
	<path class="st2" d="M68.778,20.164l-4.125,11.764l-29.45-10.326L30.93,33.788l26.487,9.287L53.47,54.331l-26.487-9.287
		l-4.303,12.271l30.38,10.653l-4.095,11.678L5.382,64.363L26.124,5.208L68.778,20.164z"/>
	<path class="st2" d="M338.796,4.194l10.111,2.258l-5.652,25.312l10.474,2.339l5.083-22.765l9.674,2.16l-5.083,22.765l10.546,2.355
		l5.831-26.112l10.038,2.241l-8.365,37.46L330.61,40.854L338.796,4.194z"/>
	<g>
		<path class="st2" d="M620.79,66.95l-8.285,5.453L599.61,52.811l-9.132,6.011l12.259,18.625l-8.285,5.453l-12.259-18.625
			l-16.57,10.906l-6.21-9.435l42.272-27.823L620.79,66.95z"/>
	</g>
	<g>
		<polygon class="st2" points="490.527,74.884 517.079,79.784 519.259,67.973 492.707,63.073 495.109,50.054 523.04,55.208 
			525.22,43.398 483.838,35.761 474.093,88.569 488.002,88.569 		"/>
	</g>
</g>
</svg>
