<?xml version="1.0" encoding="utf-8"?>
<!-- Generator: Adobe Illustrator 23.0.6, SVG Export Plug-In . SVG Version: 6.00 Build 0)  -->
<svg version="1.1" id="Vrstva_1" xmlns="http://www.w3.org/2000/svg" xmlns:xlink="http://www.w3.org/1999/xlink" x="0px" y="0px"
	 viewBox="0 0 383.889 214.783" style="enable-background:new 0 0 383.889 214.783;" xml:space="preserve">
<style type="text/css">
	.st0{fill:#606060;}
	.st1{fill:#FFFFFF;}
</style>
<g>
	<path class="st0" d="M192.709,80.869c-0.517-0.249-1.132-0.185-1.583,0.171l-30.791,24.239c-0.361,0.285-0.572,0.719-0.572,1.179
		v17.42c0,0.828,0.671,1.5,1.5,1.5h30.791c0.829,0,1.5-0.672,1.5-1.5V82.219C193.555,81.644,193.227,81.12,192.709,80.869z
		 M162.763,107.186l11.89-9.359v24.551h-11.89V107.186z M190.554,122.378h-12.901V95.465l12.901-10.156V122.378z"/>
	<path class="st0" d="M267.691,17.669c-0.134-0.039-0.273-0.067-0.42-0.067c-0.003,0-0.005,0.001-0.008,0.001
		c-0.009,0-0.017,0.002-0.026,0.003c-0.143,0.003-0.278,0.03-0.408,0.07c-0.026,0.008-0.052,0.015-0.078,0.024
		c-0.137,0.051-0.262,0.12-0.377,0.206c-0.009,0.007-0.021,0.009-0.03,0.017l-31.495,24.794c-0.02,0.016-0.034,0.036-0.053,0.052
		c-0.048,0.042-0.093,0.086-0.135,0.133c-0.028,0.031-0.054,0.062-0.079,0.095c-0.038,0.051-0.072,0.105-0.104,0.16
		c-0.02,0.034-0.039,0.068-0.056,0.103c-0.028,0.06-0.05,0.124-0.07,0.188c-0.011,0.035-0.024,0.07-0.033,0.106
		c-0.016,0.069-0.023,0.141-0.029,0.213c-0.002,0.029-0.011,0.057-0.012,0.086l-0.479,17.464c-0.012,0.405,0.142,0.797,0.424,1.087
		c0.282,0.291,0.67,0.454,1.075,0.454h87.543c0.644,0,1.216-0.411,1.422-1.021c0.205-0.61-0.001-1.283-0.514-1.673L268.18,17.908
		c-0.008-0.006-0.017-0.007-0.025-0.013c-0.116-0.085-0.245-0.152-0.383-0.201C267.745,17.684,267.719,17.677,267.691,17.669z
		 M268.771,22.127l26.653,20.269h-26.653V22.127z M265.771,42.396h-25.665l25.665-20.204V42.396z M237.236,45.396h28.535V59.86
		H236.84L237.236,45.396z M268.771,59.86V45.396h30.598l19.021,14.464H268.771z"/>
	<path class="st0" d="M3.434,113.433h121.092v101.35h3V112.679L267.27,6.812L380.673,93.05v121.733h3V92.306
		c0-0.469-0.219-0.91-0.592-1.194L268.18,3.735c-0.536-0.408-1.276-0.408-1.814-0.002l-85.002,64.396H59.061
		c-0.321,0-0.634,0.103-0.893,0.294L1.042,110.728c-0.02,0.015-0.034,0.034-0.053,0.05c-0.059,0.048-0.114,0.098-0.164,0.155
		c-0.026,0.029-0.05,0.059-0.074,0.089c-0.043,0.056-0.082,0.116-0.117,0.178c-0.018,0.033-0.037,0.064-0.053,0.098
		c-0.033,0.07-0.058,0.142-0.08,0.217c-0.009,0.03-0.021,0.059-0.028,0.089c-0.024,0.106-0.039,0.216-0.039,0.329v102.85h3V113.433z
		 M59.556,71.129h117.847l-42.15,31.932c-0.081-0.014-0.163-0.025-0.249-0.025H16.47L59.556,71.129z M12.419,106.036h118.908
		l-5.805,4.397H6.48L12.419,106.036z"/>
	<path class="st0" d="M370.747,162.673c0-7.743-3.489-14.683-8.972-19.344v-47.82c0-0.829-0.672-1.5-1.5-1.5h-56.737
		c-0.828,0-1.5,0.671-1.5,1.5v44.648c-2.604-1.36-5.47-2.279-8.503-2.663V95.509c0-0.829-0.672-1.5-1.5-1.5h-56.737
		c-0.828,0-1.5,0.671-1.5,1.5v41.823c-13.303,0.779-23.889,11.846-23.889,25.341c0,12.118,8.535,22.273,19.907,24.787v27.323h3
		v-26.844c0.817,0.08,1.644,0.123,2.481,0.123c0.838,0,1.665-0.043,2.482-0.123v26.844h3V187.46
		c11.372-2.514,19.907-12.669,19.907-24.787c0-3.141-0.577-6.148-1.625-8.927h7.501c-1.047,2.779-1.625,5.786-1.625,8.927
		c0,12.118,8.535,22.273,19.907,24.787v27.323h3v-26.844c0.817,0.08,1.644,0.123,2.481,0.123s1.665-0.043,2.481-0.123v26.844h3
		V187.46c11.372-2.514,19.907-12.669,19.907-24.787c0-3.141-0.577-6.148-1.625-8.927h7.501c-1.047,2.779-1.625,5.786-1.625,8.927
		c0,12.118,8.535,22.274,19.908,24.787v27.323h3v-26.844c0.817,0.08,1.644,0.123,2.481,0.123s1.665-0.043,2.481-0.123v26.844h3
		V187.46C362.212,184.946,370.747,174.79,370.747,162.673z M333.406,97.009h25.369v25.369h-25.369V97.009z M333.406,125.378h25.369
		v15.755c-3.896-2.436-8.494-3.849-13.417-3.849c-4.319,0-8.388,1.087-11.952,2.997V125.378z M305.038,97.009h25.368v25.369h-25.368
		V97.009z M265.167,97.009h25.368v25.369h-25.368V97.009z M240.78,184.381v-12.985l5.658-9.771c0.415-0.717,0.171-1.635-0.546-2.05
		c-0.717-0.416-1.634-0.17-2.05,0.546l-5.86,10.12c-0.133,0.229-0.202,0.488-0.202,0.752v13.929
		c-0.816,0.09-1.643,0.141-2.482,0.141c-0.839,0-1.666-0.05-2.481-0.141v-6.298c0-0.331-0.109-0.652-0.311-0.914l-3.131-4.071
		l11.135-22.214c0.371-0.74,0.072-1.642-0.669-2.013c-0.739-0.371-1.642-0.073-2.013,0.669l-4.63,9.237l-4.897-7.248
		c-0.464-0.687-1.396-0.866-2.083-0.403c-0.687,0.464-0.867,1.396-0.403,2.083l5.841,8.645l-4.312,8.603l-3.132-4.071
		c-0.505-0.657-1.446-0.778-2.104-0.275c-0.657,0.506-0.78,1.447-0.275,2.104l7.983,10.379v5.247
		c-9.703-2.452-16.907-11.253-16.907-21.708c0-12.345,10.044-22.389,22.389-22.389c12.346,0,22.39,10.044,22.39,22.389
		C257.688,173.127,250.484,181.929,240.78,184.381z M262.167,150.746h-4.464c-4.055-7.586-11.849-12.883-20.905-13.414v-11.954
		h25.369V150.746z M262.167,122.378h-25.369V97.009h25.369V122.378z M265.167,150.746v-25.368h25.368v11.911
		c-0.069-0.001-0.138-0.005-0.207-0.005c-9.69,0-18.127,5.459-22.404,13.462H265.167z M295.81,184.381v-5.406l5.922-7.555
		c0.511-0.652,0.396-1.596-0.255-2.106c-0.654-0.51-1.596-0.396-2.106,0.255l-6.241,7.963c-0.207,0.265-0.319,0.59-0.319,0.926
		v6.464c-0.815,0.09-1.642,0.141-2.481,0.141s-1.666-0.05-2.481-0.141v-11.936l13.903-18.513c0.498-0.662,0.364-1.603-0.299-2.1
		c-0.66-0.497-1.601-0.363-2.1,0.299l-11.505,15.319v-14.419c0-0.828-0.672-1.5-1.5-1.5s-1.5,0.672-1.5,1.5v11.243l-7.644-7.347
		c-0.595-0.575-1.547-0.555-2.12,0.042c-0.574,0.597-0.556,1.546,0.042,2.12l9.722,9.345v15.405
		c-9.703-2.452-16.907-11.253-16.907-21.708c0-12.345,10.044-22.389,22.389-22.389s22.389,10.044,22.389,22.389
		C312.717,173.128,305.513,181.929,295.81,184.381z M312.733,150.746c-1.858-3.477-4.504-6.469-7.694-8.746v-16.622h25.368v16.794
		c-3.084,2.255-5.642,5.185-7.453,8.575H312.733z M348.056,175.527c-0.142,0.233-0.216,0.501-0.216,0.774v8.62
		c-0.815,0.09-1.642,0.141-2.481,0.141s-1.666-0.05-2.481-0.141v-17.247c0-0.387-0.149-0.759-0.417-1.038l-4.671-4.875l7.123-10.146
		c0.477-0.679,0.312-1.614-0.365-2.09c-0.678-0.477-1.612-0.312-2.09,0.365l-6.784,9.663l-3.513-3.666
		c-0.574-0.6-1.523-0.618-2.121-0.045s-0.618,1.522-0.045,2.121l4.756,4.963c0.007,0.008,0.015,0.016,0.023,0.024l5.104,5.327
		v16.104c-9.704-2.451-16.908-11.253-16.908-21.708c0-12.345,10.044-22.389,22.39-22.389c12.345,0,22.389,10.044,22.389,22.389
		c0,10.455-7.204,19.257-16.907,21.708v-7.662l9.393-15.569c0.428-0.709,0.2-1.631-0.51-2.059c-0.707-0.429-1.632-0.202-2.059,0.51
		l-3.594,5.958l-7.68-7.268c-0.602-0.568-1.552-0.543-2.121,0.059s-0.543,1.552,0.059,2.121l8.156,7.719L348.056,175.527z"/>
	<path class="st0" d="M192.053,127.701h-30.79c-0.829,0-1.5,0.672-1.5,1.5v55.451c0,0.828,0.671,1.5,1.5,1.5h30.79
		c0.829,0,1.5-0.672,1.5-1.5v-55.451C193.554,128.373,192.882,127.701,192.053,127.701z M162.763,130.701h11.89v52.451h-11.89
		V130.701z M190.553,183.152h-12.9v-52.451h12.9V183.152z"/>
	<path class="st0" d="M37.797,122.509H23.122c-0.829,0-1.5,0.672-1.5,1.5v29.55c0,0.828,0.671,1.5,1.5,1.5h14.675
		c0.829,0,1.5-0.672,1.5-1.5v-29.55C39.297,123.18,38.625,122.509,37.797,122.509z M36.297,152.058H24.622v-26.55h11.675V152.058z"
		/>
	<path class="st0" d="M59.475,122.509H44.8c-0.829,0-1.5,0.672-1.5,1.5v29.55c0,0.828,0.671,1.5,1.5,1.5h14.675
		c0.829,0,1.5-0.672,1.5-1.5v-29.55C60.975,123.18,60.304,122.509,59.475,122.509z M57.975,152.058H46.3v-26.55h11.675V152.058z"/>
	<path class="st0" d="M81.152,122.509H66.477c-0.829,0-1.5,0.672-1.5,1.5v29.55c0,0.828,0.671,1.5,1.5,1.5h14.675
		c0.829,0,1.5-0.672,1.5-1.5v-29.55C82.652,123.18,81.98,122.509,81.152,122.509z M79.652,152.058H67.977v-26.55h11.675V152.058z"/>
	<path class="st0" d="M102.829,122.509H88.154c-0.829,0-1.5,0.672-1.5,1.5v29.55c0,0.828,0.671,1.5,1.5,1.5h14.675
		c0.829,0,1.5-0.672,1.5-1.5v-29.55C104.329,123.18,103.658,122.509,102.829,122.509z M101.329,152.058H89.654v-26.55h11.675
		V152.058z"/>
	<path class="st0" d="M37.797,161.911H23.122c-0.829,0-1.5,0.672-1.5,1.5v29.549c0,0.828,0.671,1.5,1.5,1.5h14.675
		c0.829,0,1.5-0.672,1.5-1.5v-29.549C39.297,162.583,38.625,161.911,37.797,161.911z M36.297,191.46H24.622v-26.549h11.675V191.46z"
		/>
	<path class="st0" d="M59.475,161.911H44.8c-0.829,0-1.5,0.672-1.5,1.5v29.549c0,0.828,0.671,1.5,1.5,1.5h14.675
		c0.829,0,1.5-0.672,1.5-1.5v-29.549C60.975,162.583,60.304,161.911,59.475,161.911z M57.975,191.46H46.3v-26.549h11.675V191.46z"/>
	<path class="st0" d="M81.152,161.911H66.477c-0.829,0-1.5,0.672-1.5,1.5v29.549c0,0.828,0.671,1.5,1.5,1.5h14.675
		c0.829,0,1.5-0.672,1.5-1.5v-29.549C82.652,162.583,81.98,161.911,81.152,161.911z M79.652,191.46H67.977v-26.549h11.675V191.46z"
		/>
	<path class="st0" d="M102.829,161.911H88.154c-0.829,0-1.5,0.672-1.5,1.5v29.549c0,0.828,0.671,1.5,1.5,1.5h14.675
		c0.829,0,1.5-0.672,1.5-1.5v-29.549C104.329,162.583,103.658,161.911,102.829,161.911z M101.329,191.46H89.654v-26.549h11.675
		V191.46z"/>
</g>
</svg>
