<?xml version="1.0" encoding="utf-8"?>
<!-- Generator: Adobe Illustrator 23.0.6, SVG Export Plug-In . SVG Version: 6.00 Build 0)  -->
<svg version="1.1" id="Vrstva_1" xmlns="http://www.w3.org/2000/svg" xmlns:xlink="http://www.w3.org/1999/xlink" x="0px" y="0px"
	 viewBox="0 0 383.889 214.783" style="enable-background:new 0 0 383.889 214.783;" xml:space="preserve">
<style type="text/css">
	.st0{fill:#606060;}
	.st1{fill:#FFFFFF;}
</style>
<g>
	<path class="st1" d="M318.966,154.953c-0.705-0.249-1.475,0.119-1.724,0.821c-4.502,12.698-16.684,21.229-30.312,21.229
		s-25.811-8.531-30.312-21.229c-0.191-0.539-0.701-0.898-1.272-0.898s-1.081,0.359-1.272,0.898
		c-4.502,12.698-16.684,21.229-30.312,21.229s-25.811-8.531-30.312-21.229c-0.191-0.539-0.701-0.898-1.272-0.898
		s-1.081,0.359-1.272,0.898c-4.501,12.698-16.683,21.229-30.312,21.229c-13.629,0-25.811-8.531-30.312-21.229
		c-0.191-0.539-0.701-0.898-1.272-0.898s-1.081,0.359-1.272,0.898c-4.501,12.698-16.683,21.229-30.312,21.229
		c-13.629,0-25.811-8.531-30.312-21.229c-0.249-0.702-1.019-1.068-1.724-0.821c-0.703,0.249-1.07,1.021-0.821,1.724
		c4.884,13.773,18.088,23.026,32.857,23.026c13.634,0,25.933-7.884,31.585-19.929c5.653,12.045,17.952,19.929,31.585,19.929
		c13.634,0,25.933-7.884,31.585-19.929c5.653,12.045,17.952,19.929,31.585,19.929s25.932-7.884,31.585-19.929
		c5.653,12.045,17.952,19.929,31.585,19.929c14.77,0,27.974-9.253,32.857-23.026C320.037,155.974,319.669,155.202,318.966,154.953z"
		/>
	<path class="st1" d="M382.136,119.046c-0.705-0.25-1.475,0.118-1.724,0.821c-4.503,12.698-16.685,21.23-30.312,21.23
		s-25.81-8.532-30.312-21.23c-0.191-0.539-0.701-0.898-1.272-0.898s-1.081,0.359-1.272,0.898c-2.57,7.248-7.648,13.13-14.062,16.851
		c-3.484-18.736-18.222-32.483-37.726-36.011c7.862-2.624,14.489-7.92,18.761-14.799c1.036-0.644,4.663-3.095,7.863-7.687
		c3.403-4.884,6.936-13.207,4.435-25.126c-2.13-10.147-7.787-18.486-16.362-24.115c-7.292-4.787-16.488-7.472-25.893-7.559
		c-0.005,0-0.009,0-0.013,0s-0.008,0-0.013,0c-16.605,0.154-41.57,8.778-42.283,31.91c-0.767,24.946,10.026,31.518,12.373,32.648
		c4.429,7.094,11.362,12.504,19.574,15.011c-18.786,3.949-32.88,17.508-36.252,35.799c-6.477-3.717-11.608-9.626-14.195-16.924
		c-0.191-0.539-0.701-0.898-1.272-0.898s-1.081,0.359-1.272,0.898c-2.591,7.309-7.735,13.225-14.227,16.941
		c-3.454-18.782-18.206-32.567-37.741-36.101c5.964-1.99,11.214-5.52,15.267-10.113c5.156,21.637,18.065,23.315,18.635,23.377
		c0.049,0.006,0.098,0.008,0.146,0.008c0.44,0,0.857-0.216,1.111-0.583c0.282-0.409,0.316-0.939,0.091-1.381
		c-2.451-4.795-3.207-10.732-2.31-18.149c0.688-5.676,2.369-11.256,4.084-16.44c0.565-1.712,1.159-3.429,1.754-5.153
		c3.038-8.792,6.179-17.882,6.082-27.416c-0.091-9.09-3.5-18.039-9.12-23.938c-11.224-11.782-26.69-6.57-36.776,1.622
		c-3.304-0.704-6.719-1.088-10.162-1.119c-0.005,0-0.009,0-0.013,0s-0.008,0-0.013,0c-9.404,0.087-18.6,2.771-25.892,7.559
		c-8.575,5.629-14.233,13.968-16.363,24.115c-4.454,21.224,10.051,31.38,12.293,32.805c4.427,7.133,11.383,12.574,19.625,15.09
		c-18.755,3.943-32.835,17.464-36.237,35.71c-6.4-3.722-11.465-9.598-14.031-16.834c-0.191-0.539-0.701-0.898-1.272-0.898
		s-1.081,0.359-1.272,0.898c-4.502,12.698-16.684,21.23-30.313,21.23c-13.628,0-25.81-8.532-30.312-21.23
		c-0.249-0.702-1.018-1.069-1.724-0.821c-0.703,0.249-1.07,1.021-0.821,1.724c4.884,13.773,18.088,23.027,32.857,23.027
		c13.634,0,25.933-7.884,31.585-19.93c3.246,6.917,8.69,12.45,15.312,15.918c0.205,0.227,0.483,0.391,0.81,0.437
		c0.026,0.003,0.051,0.001,0.076,0.003c4.691,2.29,9.927,3.573,15.387,3.573c0.503,0,0.999-0.033,1.498-0.054
		c0.052,0.006,0.098,0.031,0.151,0.031c0.077,0,0.143-0.031,0.217-0.044c9.646-0.512,18.481-4.952,24.577-11.982
		c0.025-0.03,0.052-0.057,0.074-0.09c2.01-2.334,3.73-4.941,5.067-7.79c5.377,11.458,16.769,19.134,29.6,19.858
		c0.032,0.002,0.06,0.019,0.093,0.019c0.023,0,0.042-0.012,0.065-0.013c0.607,0.032,1.214,0.066,1.827,0.066
		c5.423,0,10.625-1.264,15.291-3.525c0.273-0.046,0.513-0.17,0.701-0.348c6.749-3.457,12.302-9.044,15.593-16.057
		c3.312,7.058,8.915,12.669,15.722,16.121c0.11,0.077,0.232,0.139,0.365,0.181c4.719,2.325,9.995,3.628,15.499,3.628
		c0.521,0,1.036-0.033,1.552-0.056c0.092,0.02,0.179,0.056,0.277,0.056c0.141,0,0.269-0.04,0.397-0.08
		c12.733-0.806,24.015-8.464,29.359-19.849c5.4,11.506,16.867,19.197,29.765,19.864c0.037,0.003,0.069,0.022,0.107,0.022
		c0.026,0,0.049-0.014,0.075-0.015c0.545,0.025,1.089,0.059,1.638,0.059c5.405,0,10.59-1.256,15.245-3.502c0,0,0,0,0.001,0
		c0.062,0,0.125-0.005,0.188-0.014c0.368-0.052,0.68-0.247,0.888-0.521c6.601-3.469,12.025-8.993,15.263-15.893
		c5.653,12.046,17.952,19.93,31.585,19.93c14.77,0,27.974-9.254,32.857-23.027C383.207,120.066,382.839,119.295,382.136,119.046z
		 M172.72,22.782c5.16,5.416,8.291,13.679,8.376,22.103c0.091,9.066-2.972,17.932-5.935,26.507c-0.6,1.734-1.196,3.463-1.767,5.187
		c-1.758,5.317-3.483,11.053-4.199,16.964c-0.803,6.63-0.352,12.206,1.38,16.938c-3.859-1.714-11.054-6.955-14.209-22.598
		c0.463-0.643,0.91-1.299,1.329-1.973c1.036-0.644,4.664-3.095,7.864-7.687c3.403-4.884,6.936-13.207,4.434-25.126
		c-2.13-10.147-7.787-18.486-16.362-24.115c-3.714-2.438-7.923-4.327-12.4-5.609C150.685,16.378,163.323,12.918,172.72,22.782z
		 M88.1,53.651c2.829-13.476,14.903-29.294,39.625-29.528c3.532,0.033,6.797,0.394,9.823,1.011c0.269,0.165,0.575,0.22,0.882,0.179
		c17.575,3.945,26.536,16.974,28.92,28.338c2.848,13.565-2.49,22.042-6.758,26.42c1.467-3.823,2.277-7.963,2.277-12.288
		c0-3.868-0.639-7.669-1.899-11.298c-0.011-0.031-0.028-0.057-0.04-0.087c-0.018-0.041-0.035-0.082-0.056-0.12
		c-0.022-0.039-0.046-0.075-0.071-0.111c-0.026-0.037-0.051-0.074-0.08-0.108c-0.028-0.033-0.058-0.062-0.088-0.092
		c-0.032-0.031-0.064-0.062-0.098-0.09c-0.033-0.027-0.068-0.05-0.104-0.073c-0.037-0.024-0.073-0.048-0.112-0.068
		c-0.038-0.02-0.077-0.036-0.117-0.052c-0.04-0.016-0.08-0.033-0.121-0.045c-0.042-0.013-0.085-0.021-0.129-0.03
		c-0.041-0.008-0.083-0.016-0.125-0.021c-0.046-0.005-0.093-0.005-0.139-0.005c-0.041,0-0.082,0-0.124,0.004
		c-0.048,0.005-0.096,0.014-0.144,0.024c-0.028,0.006-0.056,0.007-0.085,0.014c-30.507,8.355-55.792-10.901-56.044-11.096
		c-0.057-0.045-0.126-0.059-0.188-0.093c-0.083-0.046-0.161-0.098-0.25-0.124c-0.081-0.024-0.162-0.025-0.244-0.034
		c-0.09-0.01-0.176-0.026-0.266-0.018c-0.083,0.007-0.159,0.037-0.239,0.06c-0.087,0.024-0.173,0.042-0.255,0.083
		c-0.075,0.038-0.135,0.098-0.203,0.15c-0.062,0.048-0.133,0.079-0.188,0.139c-5.727,6.364-8.881,14.564-8.881,23.091
		c0,4.274,0.789,8.367,2.223,12.152C90.565,75.486,85.302,66.984,88.1,53.651z M95.281,67.783c0-7.457,2.623-14.642,7.403-20.369
		c4.139,2.869,20.241,13.01,40.988,13.01c4.814,0,9.883-0.557,15.105-1.868c0.908,2.984,1.394,6.078,1.394,9.227
		c0,17.671-14.555,32.048-32.445,32.048C109.835,99.831,95.281,85.454,95.281,67.783z M83.658,138.012
		c1.664-9.975,6.711-18.493,14.062-24.685v27.759c-0.101,0.001-0.199,0.012-0.3,0.012C92.551,141.098,87.874,139.992,83.658,138.012
		z M100.419,140.945v-29.715c0.968-0.692,1.967-1.35,2.999-1.966c2.676,10.493,9.018,18.723,17.049,22.17
		C115.215,136.778,108.141,140.229,100.419,140.945z M129.005,118.969c-0.571,0-1.081,0.359-1.272,0.898
		c-1.237,3.49-3.072,6.651-5.34,9.421c-7.841-2.935-14.069-10.986-16.525-21.38c6.71-3.462,14.545-5.398,23.03-5.398
		c8.487,0,16.322,1.935,23.031,5.395c-2.417,10.209-8.604,18.336-16.323,21.324c-0.009,0.003-0.016,0.009-0.025,0.013
		c-2.251-2.759-4.072-5.904-5.303-9.375C130.086,119.328,129.577,118.969,129.005,118.969z M137.473,131.36
		c7.931-3.48,14.262-11.764,16.906-22.099c1.022,0.611,2.011,1.262,2.97,1.946v29.709
		C149.687,140.148,142.677,136.689,137.473,131.36z M160.048,141.077V113.3c7.388,6.212,12.454,14.773,14.104,24.802
		c-4.164,1.921-8.769,2.995-13.562,2.995C160.408,141.098,160.23,141.08,160.048,141.077z M214.648,53.415
		c0.654-21.223,24.032-29.144,39.596-29.292c24.724,0.233,36.798,16.051,39.626,29.528c2.846,13.564-2.491,22.041-6.757,26.419
		c1.467-3.823,2.277-7.963,2.277-12.288c0-3.868-0.639-7.669-1.899-11.298c-0.011-0.032-0.029-0.059-0.042-0.09
		c-0.017-0.039-0.033-0.078-0.054-0.115c-0.023-0.042-0.049-0.081-0.076-0.119c-0.024-0.034-0.047-0.067-0.073-0.099
		c-0.031-0.036-0.064-0.069-0.098-0.102c-0.029-0.027-0.057-0.055-0.087-0.08c-0.037-0.03-0.076-0.055-0.115-0.081
		c-0.033-0.021-0.066-0.043-0.101-0.061c-0.041-0.022-0.083-0.039-0.126-0.057c-0.037-0.015-0.074-0.03-0.113-0.042
		c-0.044-0.013-0.089-0.022-0.134-0.031c-0.04-0.008-0.08-0.016-0.121-0.02c-0.046-0.005-0.093-0.005-0.14-0.005
		c-0.041,0-0.082,0-0.124,0.004c-0.048,0.005-0.095,0.014-0.143,0.024c-0.028,0.006-0.057,0.007-0.085,0.014
		c-4.781,1.31-9.727,2.021-14.697,2.112c-3.944,0.07-7.967-0.244-11.973-0.938c-5.894-1.022-11.783-2.856-17.505-5.453
		c-1.239-0.562-2.477-1.165-3.676-1.788c-0.391-0.203-0.855-0.203-1.246,0s-0.657,0.584-0.715,1.021
		c-0.385,2.899-0.412,4.888-0.222,6.827c-3.521-2.19-5.146-9.108-5.499-11.975c-0.017-0.135-0.058-0.26-0.11-0.378
		c-0.008-0.018-0.015-0.035-0.023-0.052c-0.072-0.147-0.17-0.276-0.287-0.386c-0.007-0.007-0.01-0.016-0.017-0.023
		c-0.006-0.005-0.013-0.006-0.019-0.011c-0.123-0.107-0.264-0.19-0.419-0.247c-0.015-0.005-0.028-0.012-0.043-0.017
		c-0.143-0.047-0.295-0.068-0.453-0.064c-0.024,0.001-0.046,0-0.07,0.002c-0.021,0.002-0.042-0.001-0.063,0.001
		c-0.132,0.016-0.253,0.056-0.369,0.106c-0.023,0.01-0.046,0.019-0.069,0.031c-0.14,0.07-0.264,0.163-0.37,0.274
		c-0.01,0.01-0.023,0.014-0.033,0.024c-5.727,6.364-8.88,14.564-8.88,23.09c0,4.372,0.829,8.555,2.327,12.412
		C218.123,76.338,214.182,68.533,214.648,53.415z M221.8,67.783c0-6.912,2.252-13.592,6.388-19.094
		c0.968,4.169,3.446,11.361,9.103,12.045c0.055,0.006,0.108,0.01,0.162,0.01c0.365,0,0.719-0.149,0.975-0.416
		c0.294-0.307,0.427-0.733,0.357-1.153c-0.345-2.1-0.492-3.803-0.274-6.338c0.681,0.333,1.368,0.657,2.057,0.969
		c5.93,2.691,12.039,4.593,18.159,5.654c4.172,0.723,8.367,1.052,12.482,0.977c4.755-0.087,9.487-0.723,14.087-1.879
		c0.908,2.983,1.393,6.076,1.393,9.225c0,17.671-14.555,32.048-32.445,32.048C236.355,99.831,221.8,85.454,221.8,67.783z
		 M286.567,141.084V128.1c0-0.745-0.604-1.35-1.35-1.35s-1.35,0.604-1.35,1.35v12.837c-12.361-1.171-23.088-9.333-27.25-21.07
		c-0.191-0.539-0.701-0.898-1.272-0.898s-1.081,0.359-1.272,0.898c-4.149,11.7-14.822,19.845-27.134,21.056V128.1
		c0-0.745-0.604-1.35-1.35-1.35s-1.35,0.604-1.35,1.35v12.979c-0.161,0.002-0.318,0.019-0.479,0.019
		c-4.806,0-9.422-1.08-13.595-3.011c3.463-20.996,21.914-35.577,45.252-35.577c23.322,0,41.754,14.549,45.242,35.516
		c-4.208,1.97-8.872,3.071-13.729,3.071C286.808,141.098,286.689,141.085,286.567,141.084z"/>
	<path class="st1" d="M141.354,87.494c0.617-0.418,0.779-1.257,0.361-1.875c-0.42-0.619-1.26-0.78-1.875-0.361
		c-3.574,2.421-7.764,3.7-12.115,3.7c-4.301,0-8.448-1.251-11.994-3.62c-0.62-0.414-1.458-0.247-1.873,0.373
		c-0.414,0.62-0.247,1.458,0.373,1.872c3.992,2.666,8.658,4.075,13.494,4.075C132.619,91.659,137.331,90.219,141.354,87.494z"/>
	<path class="st1" d="M267.874,87.494c0.617-0.418,0.779-1.257,0.361-1.875c-0.42-0.619-1.261-0.78-1.875-0.361
		c-3.574,2.421-7.764,3.7-12.115,3.7c-4.301,0-8.448-1.251-11.994-3.62c-0.62-0.414-1.458-0.247-1.873,0.373
		c-0.414,0.62-0.247,1.458,0.373,1.872c3.992,2.666,8.658,4.075,13.494,4.075C259.138,91.659,263.851,90.219,267.874,87.494z"/>
</g>
</svg>
