<?xml version="1.0" encoding="utf-8"?>
<!-- Generator: Adobe Illustrator 23.0.4, SVG Export Plug-In . SVG Version: 6.00 Build 0)  -->
<svg version="1.1" id="Layer_1" xmlns="http://www.w3.org/2000/svg" xmlns:xlink="http://www.w3.org/1999/xlink" x="0px" y="0px"
	 viewBox="0 0 141.732 141.732" style="enable-background:new 0 0 141.732 141.732;" xml:space="preserve">
<style type="text/css">
	.st0{fill:#7EBA02;}
	.st1{fill-rule:evenodd;clip-rule:evenodd;fill:#7EBA02;}
</style>
<g>
	<path class="st0" d="M30.055,32.34c-5.724-1.068-10.365,2.787-10.365,8.61v52.552c0,5.823,4.641,11.409,10.365,12.477l29.024,5.414
		c2.863,0.534,6.614,0.801,10.365,0.801v-73.64c-3.751,0-7.503-0.267-10.365-0.801L30.055,32.34z M59.97,89.55l-30.586-5.704v-5.569
		l30.586,5.704V89.55z M59.97,74.499l-30.586-5.704v-5.569L59.97,68.93V74.499z M59.97,59.448l-30.586-5.704v-5.569l30.586,5.704
		V59.448z"/>
	<path class="st0" d="M112.819,32.34l-29.024,5.414c-2.862,0.534-6.613,0.801-10.365,0.801v73.64c3.75,0,7.5-0.267,10.362-0.801
		c8.513-1.588,20.514-3.826,29.028-5.414c5.724-1.068,10.365-6.654,10.365-12.477V40.95
		C123.184,35.127,118.543,31.272,112.819,32.34z M111.959,83.846L81.373,89.55v-5.569l30.586-5.704V83.846z M111.959,68.795
		l-30.586,5.704V68.93l30.586-5.704V68.795z M111.959,53.744l-30.586,5.704v-5.569l30.586-5.704V53.744z"/>
</g>
</svg>
