<?xml version="1.0" encoding="utf-8"?>
<!-- Generator: Adobe Illustrator 23.0.4, SVG Export Plug-In . SVG Version: 6.00 Build 0)  -->
<svg version="1.1" id="Layer_1" xmlns="http://www.w3.org/2000/svg" xmlns:xlink="http://www.w3.org/1999/xlink" x="0px" y="0px"
	 viewBox="0 0 141.732 141.732" style="enable-background:new 0 0 141.732 141.732;" xml:space="preserve">
<style type="text/css">
	.st0{fill:#7EBA02;}
</style>
<path class="st0" d="M94.401,62.675c0,0-1.323-0.396-1.323-2.908c0-2.512,1.323-3.122,1.323-3.122h28.688v-6.03H94.401
	c0,0-1.323-0.512-1.323-2.927s1.323-3.103,1.323-3.103h28.688v-6.03H93.077h-2.001c0,0-4.209,1.978-6.368,7.732H19.114v14.689
	h65.594c2.158,5.754,6.368,7.731,6.368,7.731h32.013v-6.03H94.401z"/>
<path class="st0" d="M123.751,78.653c0,0-49.535,0-55.897,0S51.217,68.608,42.603,68.608c-11.302,0-23.488,6.453-23.488,17.39
	c0,10.938,12.185,17.39,23.488,17.39c8.616,0,18.707-10.046,25.253-10.046s55.897,0,55.897,0L123.751,78.653L123.751,78.653z"/>
</svg>
