<?xml version="1.0" encoding="utf-8"?>
<!-- Generator: Adobe Illustrator 23.0.4, SVG Export Plug-In . SVG Version: 6.00 Build 0)  -->
<svg version="1.1" id="Vrstva_1" xmlns="http://www.w3.org/2000/svg" xmlns:xlink="http://www.w3.org/1999/xlink" x="0px" y="0px"
	 viewBox="0 0 141.732 141.732" style="enable-background:new 0 0 141.732 141.732;" xml:space="preserve">
<style type="text/css">
	.st0{fill:#7EBA02;}
	.st1{fill:#FFFFFF;}
</style>
<circle class="st0" cx="70.866" cy="70.987" r="70.745"/>
<g>
	<path class="st1" d="M58.404,39.591l18.46,18.46C76.864,47.855,68.599,39.591,58.404,39.591z"/>
	<path class="st1" d="M111.359,97.264L91.081,76.986c3.234-5.568,5.095-12.033,5.095-18.936c0-20.861-16.911-37.772-37.772-37.772
		S20.632,37.189,20.632,58.05s16.911,37.772,37.772,37.772c7.121,0,13.781-1.973,19.466-5.399l20.165,20.165
		c3.614,3.614,9.528,3.614,13.142,0l0.182-0.182C114.973,106.792,114.973,100.878,111.359,97.264z M31.695,58.05
		c0-14.751,11.958-26.709,26.709-26.709S85.113,43.299,85.113,58.05S73.155,84.759,58.404,84.759S31.695,72.801,31.695,58.05z"/>
</g>
</svg>
